<svg width="22" height="16" viewBox="0 0 22 16" fill="none" xmlns="http://www.w3.org/2000/svg">
<g clip-path="url(#clip0_1017_2133)">
<path fill-rule="evenodd" clip-rule="evenodd" d="M0.714294 14.3128C0.714294 13.6301 1.28246 13.0761 1.99236 13.0761H19.8648C20.5709 13.0761 21.1429 13.6252 21.1429 14.3128C21.1429 14.9954 20.5747 15.5494 19.8648 15.5494H1.99236C1.28629 15.5494 0.714294 15.0003 0.714294 14.3128ZM0.714294 8.12962C0.714294 7.447 1.28246 6.89299 1.99236 6.89299H19.8648C20.5709 6.89299 21.1429 7.44205 21.1429 8.12962C21.1429 8.81224 20.5747 9.36625 19.8648 9.36625H1.99236C1.28629 9.36625 0.714294 8.81719 0.714294 8.12962ZM0.714294 1.94647C0.714294 1.26385 1.28246 0.709839 1.99236 0.709839H19.8648C20.5709 0.709839 21.1429 1.2589 21.1429 1.94647C21.1429 2.62909 20.5747 3.1831 19.8648 3.1831H1.99236C1.28629 3.1831 0.714294 2.63404 0.714294 1.94647Z" fill="white"/>
</g>
<defs>
<clipPath id="clip0_1017_2133">
<rect width="20.4286" height="14.8396" fill="white" transform="translate(0.714294 0.709839)"/>
</clipPath>
</defs>
</svg>
