<svg width="247" height="288" viewBox="0 0 247 288" fill="none" xmlns="http://www.w3.org/2000/svg">
<path d="M165.753 154.843H132V253.648H165.753V154.843Z" fill="#E0E0DF"/>
<path d="M166.901 253.648H157.888V236.605H176.35L166.901 253.648Z" fill="#F0F0F0"/>
<path d="M88.98 171.355H80.2936V253.648H88.98V171.355Z" fill="#F0F0F0"/>
<path d="M92.7582 171.355H85.2007V253.648H92.7582V171.355Z" fill="#EAEBEA"/>
<path d="M121.899 171.355H113.214V253.648H121.899V171.355Z" fill="#F0F0F0"/>
<path d="M125.679 171.355H118.121V253.648H125.679V171.355Z" fill="#EAEBEA"/>
<path d="M125.187 237.483H326.359C328.514 237.483 330.261 239.232 330.261 241.39V284.09C330.261 286.247 328.514 287.997 326.359 287.997H125.187V237.483Z" fill="#BA3E30"/>
<path d="M326.359 287.997H234.119V237.483H326.359C328.514 237.483 330.261 239.232 330.261 241.39V284.09C330.261 286.247 328.514 287.997 326.359 287.997ZM302.08 248.295C294.113 248.295 287.654 254.762 287.654 262.74C287.654 270.718 294.113 277.185 302.08 277.185C310.047 277.185 316.505 270.718 316.505 262.74C316.505 254.762 310.047 248.295 302.08 248.295ZM218.511 287.997H205.286V237.483H218.511V287.997ZM174.504 287.997H125.187V237.483H174.504V287.997Z" fill="#B31F1F"/>
<path d="M205.286 237.483H174.504V287.997H205.286V237.483Z" fill="#A90707"/>
<path d="M234.119 237.483H218.511V287.997H234.119V237.483Z" fill="#A90707"/>
<path d="M125.187 237.483H58.5529C56.3865 237.483 54.6287 239.242 54.6287 241.412V284.067C54.6287 286.237 56.3865 287.997 58.5529 287.997H125.187V237.483Z" fill="#BA3E30"/>
<path d="M112.913 282.57H54.6287V242.909H112.913C115.741 242.909 118.033 245.205 118.033 248.036V277.444C118.033 280.275 115.741 282.57 112.913 282.57Z" fill="#F9E2E2"/>
<path d="M139.738 200.813H340.911C343.066 200.813 344.813 202.562 344.813 204.72V233.574C344.813 235.733 343.066 237.483 340.911 237.483H139.738V200.813Z" fill="#340C0C"/>
<path d="M340.911 237.483H162.473V200.813H340.911C343.066 200.813 344.813 202.562 344.813 204.72V233.574C344.813 235.733 343.066 237.483 340.911 237.483ZM181.867 209.496C179.537 209.496 177.647 211.387 177.647 213.721V224.574C177.647 226.907 179.537 228.8 181.867 228.8H322.628C324.957 228.8 326.846 226.907 326.846 224.574V213.721C326.846 211.387 324.957 209.496 322.628 209.496H181.867ZM157.134 237.483H152.718V200.813H157.134V237.483ZM147.379 237.483H139.738V200.813H147.379V237.483Z" fill="#270202"/>
<path d="M139.738 200.813H73.1043C70.937 200.813 69.1802 202.572 69.1802 204.742V233.552C69.1802 235.722 70.937 237.483 73.1043 237.483H139.738V200.813Z" fill="#340C0C"/>
<path d="M127.465 232.056H69.1802V206.24H127.465C130.292 206.24 132.584 208.535 132.584 211.366V226.93C132.584 229.761 130.292 232.056 127.465 232.056Z" fill="#E2E4E5"/>
<path d="M322.628 228.8H181.867C179.537 228.8 177.647 226.907 177.647 224.574V213.721C177.647 211.387 179.537 209.496 181.867 209.496H322.628C324.957 209.496 326.846 211.387 326.846 213.721V224.574C326.846 226.907 324.957 228.8 322.628 228.8Z" fill="#720808"/>
<path d="M152.718 200.813H147.379V237.483H152.718V200.813Z" fill="#720808"/>
<path d="M162.473 200.813H157.134V237.483H162.473V200.813Z" fill="#720808"/>
<path d="M117.491 162.988H318.664C320.819 162.988 322.566 164.738 322.566 166.895V196.906C322.566 199.064 320.819 200.813 318.664 200.813H117.491V162.988Z" fill="#BA3E30"/>
<path d="M318.664 200.813H302.08V162.988H318.664C320.819 162.988 322.566 164.738 322.566 166.895V196.906C322.566 197.07 322.556 197.231 322.536 197.39C322.298 199.319 320.655 200.813 318.664 200.813ZM266.664 200.813H236.658V162.988H266.664V200.813ZM166.809 200.813H117.491V162.988H166.809V200.813Z" fill="#8E2F29"/>
<path d="M236.658 162.988H166.809V200.813H236.658V162.988Z" fill="#E0E9F5"/>
<path d="M117.491 162.988H50.8575C48.6912 162.988 46.9334 164.747 46.9334 166.918V196.883C46.9334 199.054 48.6912 200.813 50.8575 200.813H117.491V162.988Z" fill="#BA3E30"/>
<path d="M105.218 195.386H47.6709L48.2032 193.751L51.3445 194.306C52.239 190.414 55.7737 182.041 59.9957 172.185C62.1902 170.971 64.4048 169.712 66.6074 168.415H105.218C108.045 168.415 110.337 170.709 110.337 173.542V190.26C110.337 193.091 108.045 195.386 105.218 195.386Z" fill="#F9E2E2"/>
<path d="M132.043 137.901H333.215C335.371 137.901 337.117 139.651 337.117 141.808V159.08C337.117 161.238 335.371 162.988 333.215 162.988H132.043V137.901Z" fill="#BA3E30"/>
<path d="M333.215 162.988H132.043V141.458C140.459 141.441 147.925 140.725 152.368 137.901H166.515C166.56 137.911 166.606 137.917 166.655 137.917H195.425H206.39C206.438 137.917 206.485 137.911 206.53 137.901H333.215C335.371 137.901 337.117 139.651 337.117 141.808V159.08C337.117 161.238 335.371 162.988 333.215 162.988ZM150.049 144.514V156.375H241.233V144.514H150.049Z" fill="#C24E4E"/>
<path d="M132.043 137.901H65.408C63.2427 137.901 61.4849 139.661 61.4849 141.831V159.058C61.4849 161.228 63.2427 162.988 65.408 162.988H132.043V137.901Z" fill="#BA3E30"/>
<path d="M132.043 162.988H75.3733C78.083 161.215 80.7001 159.401 83.1602 157.561H119.769C122.597 157.561 124.889 155.266 124.889 152.435V148.455C124.889 145.623 122.597 143.328 119.769 143.328H97.7338C98.2289 142.569 98.6686 141.813 99.0469 141.062C101.372 140.884 103.87 140.817 106.475 140.817C110.49 140.817 114.761 140.977 119.051 141.137C123.34 141.298 127.65 141.458 131.741 141.458H132.043V162.988Z" fill="#D06666"/>
<path d="M119.769 157.561H83.1602C89.4298 152.872 94.665 148.026 97.7339 143.328H119.769C122.597 143.328 124.889 145.623 124.889 148.455V152.435C124.889 155.266 122.597 157.561 119.769 157.561Z" fill="#E8F2FB"/>
<path d="M195.425 129.604H166.655C166.3 129.604 166.013 129.892 166.013 130.246V137.273C166.013 137.629 166.3 137.917 166.655 137.917H195.425V129.604Z" fill="#BA3E30"/>
<path d="M195.425 137.917H166.655C166.3 137.917 166.013 137.629 166.013 137.273V130.246C166.013 129.892 166.3 129.604 166.655 129.604H195.425V137.917Z" fill="#B31F1F"/>
<path d="M195.425 129.604H206.39C206.747 129.604 207.036 129.894 207.036 130.25V137.269C207.036 137.627 206.747 137.917 206.39 137.917H195.425V129.604Z" fill="#BA3E30"/>
<path d="M207.036 137.023H197.444C196.979 137.023 196.602 136.645 196.602 136.18V131.341C196.602 130.874 196.979 130.496 197.444 130.496H207.036V137.023Z" fill="#F9E2E2"/>
<path d="M193.03 123.569H164.26C163.906 123.569 163.618 123.857 163.618 124.212V128.961C163.618 129.315 163.906 129.604 164.26 129.604H193.03V123.569Z" fill="#340C0C"/>
<path d="M193.03 129.604H164.26C163.906 129.604 163.618 129.315 163.618 128.961V124.212C163.618 123.857 163.906 123.569 164.26 123.569H193.03V129.604Z" fill="#270202"/>
<path d="M193.03 123.569H203.995C204.353 123.569 204.641 123.859 204.641 124.216V128.958C204.641 129.314 204.353 129.604 203.995 129.604H193.03V123.569Z" fill="#340C0C"/>
<path d="M204.641 128.711H195.05C194.584 128.711 194.206 128.333 194.206 127.866V125.305C194.206 124.84 194.584 124.463 195.05 124.463H204.641V128.711Z" fill="#E2E4E5"/>
<path d="M196.691 117.345H167.921C167.566 117.345 167.28 117.633 167.28 117.988V122.927C167.28 123.281 167.566 123.569 167.921 123.569H196.691V117.345Z" fill="#BA3E30"/>
<path d="M196.691 123.569H167.921C167.566 123.569 167.28 123.281 167.28 122.927V117.988C167.28 117.633 167.566 117.345 167.921 117.345H196.691V123.569Z" fill="#8E2F29"/>
<path d="M196.692 117.345H207.656C208.013 117.345 208.302 117.635 208.302 117.992V122.923C208.302 123.28 208.013 123.569 207.656 123.569H196.692V117.345Z" fill="#BA3E30"/>
<path d="M208.302 122.677H198.711C198.244 122.677 197.869 122.299 197.869 121.832V119.082C197.869 118.615 198.244 118.237 198.711 118.237H208.302V122.677Z" fill="#F9E2E2"/>
<path d="M194.297 113.217H165.527C165.172 113.217 164.885 113.505 164.885 113.86V116.702C164.885 117.057 165.172 117.345 165.527 117.345H194.297V113.217Z" fill="#BA3E30"/>
<path d="M194.297 117.345H165.527C165.172 117.345 164.885 117.057 164.885 116.702V113.86C164.885 113.505 165.172 113.217 165.527 113.217H194.297V117.345Z" fill="#C24E4E"/>
<path d="M194.297 113.217H205.262C205.618 113.217 205.908 113.506 205.908 113.864V116.699C205.908 117.056 205.618 117.345 205.262 117.345H194.297V113.217Z" fill="#BA3E30"/>
<path d="M205.262 117.345H194.297V113.217H205.262C205.618 113.217 205.908 113.506 205.908 113.864V114.109H196.316C195.849 114.109 195.474 114.487 195.474 114.954V115.608C195.474 116.074 195.849 116.452 196.316 116.452H205.908V116.699C205.908 117.056 205.618 117.345 205.262 117.345Z" fill="#D06666"/>
<path d="M205.908 116.452H196.316C195.849 116.452 195.474 116.074 195.474 115.608V114.954C195.474 114.487 195.849 114.109 196.316 114.109H205.908V116.452Z" fill="#E8F2FB"/>
<path d="M193.03 107.182H164.26C163.906 107.182 163.618 107.47 163.618 107.825V112.574C163.618 112.929 163.906 113.217 164.26 113.217H193.03V107.182Z" fill="#340C0C"/>
<path d="M193.03 113.217H164.26C163.906 113.217 163.618 112.929 163.618 112.574V107.825C163.618 107.47 163.906 107.182 164.26 107.182H193.03V113.217Z" fill="#270202"/>
<path d="M193.03 107.182H200.343C200.7 107.182 200.989 107.472 200.989 107.829V112.57C200.989 112.927 200.7 113.217 200.343 113.217H193.03V107.182Z" fill="#340C0C"/>
<path d="M200.989 112.323H195.05C194.584 112.323 194.206 111.946 194.206 111.48V108.919C194.206 108.453 194.584 108.075 195.05 108.075H200.989V112.323Z" fill="#E2E4E5"/>
<path d="M196.691 100.958H167.921C167.566 100.958 167.28 101.246 167.28 101.601V106.539C167.28 106.894 167.566 107.182 167.921 107.182H196.691V100.958Z" fill="#BA3E30"/>
<path d="M196.691 107.182H167.921C167.566 107.182 167.28 106.894 167.28 106.539V101.601C167.28 101.246 167.566 100.958 167.921 100.958H196.691V107.182Z" fill="#8E2F29"/>
<path d="M196.692 100.958H204.004C204.362 100.958 204.65 101.247 204.65 101.605V106.536C204.65 106.892 204.362 107.182 204.004 107.182H196.692V100.958Z" fill="#BA3E30"/>
<path d="M204.65 106.289H198.711C198.244 106.289 197.869 105.911 197.869 105.446V102.695C197.869 102.228 198.244 101.851 198.711 101.851H204.65V106.289Z" fill="#F9E2E2"/>
<path d="M194.297 96.829H165.527C165.172 96.829 164.885 97.1172 164.885 97.4729V100.315C164.885 100.67 165.172 100.958 165.527 100.958H194.297V96.829Z" fill="#BA3E30"/>
<path d="M194.297 100.958H165.527C165.172 100.958 164.885 100.67 164.885 100.315V97.4729C164.885 97.1172 165.172 96.829 165.527 96.829H194.297V100.958Z" fill="#C24E4E"/>
<path d="M194.297 96.829H201.61C201.967 96.829 202.256 97.1192 202.256 97.4759V100.311C202.256 100.668 201.967 100.958 201.61 100.958H194.297V96.829Z" fill="#BA3E30"/>
<path d="M201.61 100.958H194.297V96.829H201.61C201.967 96.829 202.256 97.1192 202.256 97.4759V97.7227H196.316C195.849 97.7227 195.474 98.0996 195.474 98.5661V99.221C195.474 99.6875 195.849 100.064 196.316 100.064H202.256V100.311C202.256 100.668 201.967 100.958 201.61 100.958Z" fill="#D06666"/>
<path d="M202.256 100.064H196.316C195.849 100.064 195.474 99.6874 195.474 99.2209V98.566C195.474 98.0995 195.849 97.7227 196.316 97.7227H202.256V100.064Z" fill="#E8F2FB"/>
<path d="M43.7498 207.397L37.1119 204.065L42.4991 187.547L49.1369 190.879L43.7498 207.397Z" fill="#F9B6B6"/>
<path d="M37.6905 201.467L45.8457 203.185C46.1425 203.247 46.3226 203.5 46.2794 203.794L45.3185 210.338C45.2178 211.017 44.4572 211.519 43.776 211.364C40.9466 210.717 39.6254 210.264 36.0384 209.509C33.8328 209.045 26.224 207.507 23.2799 206.489C20.4012 205.495 21.4255 202.587 22.7637 202.755C28.7646 203.504 33.9576 202.831 36.3463 201.65C36.7759 201.439 37.2559 201.375 37.6905 201.467Z" fill="#340C0C"/>
<path d="M46.3639 199.4L46.3589 199.399L46.9807 197.493C46.9807 197.496 46.9817 197.499 46.9817 197.503L46.3639 199.4Z" fill="#C3C5C5"/>
<path d="M46.9817 197.503C46.9817 197.499 46.9807 197.496 46.9807 197.493L47.6679 195.386H47.6709L46.9817 197.503Z" fill="#B31F1F"/>
<path d="M47.6709 195.386H47.6679L48.2012 193.751H48.2032L47.6709 195.386Z" fill="#B1BCC7"/>
<path d="M46.3588 199.399L39.4091 197.032L40.8972 192.461L48.2011 193.751L47.6679 195.386L46.9806 197.493L46.3588 199.399Z" fill="#D89793"/>
<path d="M116.414 107.582C116.414 107.582 59.4765 113.111 54.7122 133.87C47.8651 163.71 38.6061 192.056 38.6061 192.056L51.3445 194.306C53.2975 185.813 67.8198 155.979 74.6338 135.943C80.039 135.133 88.6178 135.684 97.7459 136.235C114.656 137.256 133.454 138.275 137.462 130.648C142.512 121.04 142.39 111.393 142.39 111.393L116.414 107.582Z" fill="#BA3E30"/>
<path d="M51.3445 194.306L48.2012 193.751L40.8972 192.461L38.6061 192.056C38.6061 192.056 39.9082 188.069 41.8984 181.508C47.1849 178.96 53.4967 175.777 59.9957 172.185C55.7737 182.041 52.239 190.414 51.3445 194.306ZM49.1359 156.191C51.0215 149.156 52.9474 141.564 54.7122 133.87C59.4765 113.111 116.414 107.582 116.414 107.582L116.443 107.586C116.432 107.714 116.421 107.838 116.409 107.964L129.328 109.669C129.199 109.686 90.2387 114.931 82.2124 125.605C75.4538 134.594 61.6338 146.388 49.1359 156.191Z" fill="#8E2F29"/>
<path d="M52.1415 198.82L37.2519 193.422L37.9673 187.424L53.5511 191.534L52.1415 198.82Z" fill="#BA3E30"/>
<path d="M36.4257 201.996C35.0734 201.982 34.1256 201.74 33.8569 201.331C33.7463 201.162 33.7483 200.955 33.864 200.7C33.9183 200.582 33.9938 200.52 34.1014 200.502C34.6176 200.415 35.6973 201.281 36.4257 201.996ZM34.851 202.192C35.5212 202.333 36.2919 202.35 36.8393 202.339L36.9962 202.234L36.962 202.047C36.7638 201.838 35.004 199.999 34.0451 200.16C33.8217 200.197 33.6507 200.334 33.55 200.557C33.383 200.924 33.3891 201.248 33.5692 201.521C33.7966 201.868 34.2886 202.073 34.851 202.192Z" fill="#BA3E30"/>
<path d="M36.4277 199.18C36.5676 199.21 36.6773 199.283 36.7598 199.405C37.1089 199.919 36.9167 201.128 36.7507 201.815C36.2325 201.148 35.7536 199.844 35.9729 199.347C36.0142 199.252 36.0947 199.146 36.3472 199.169L36.4277 199.18ZM36.801 202.335L36.8815 202.333L37.0013 202.215C37.0274 202.129 37.6291 200.072 37.0455 199.212C36.8876 198.979 36.6632 198.849 36.3774 198.824C36.0353 198.794 35.7787 198.93 35.657 199.208C35.3229 199.966 36.0866 201.711 36.7195 202.294L36.801 202.335Z" fill="#BA3E30"/>
<path d="M122.584 55.3826C122.243 59.1347 121.702 62.655 121.112 66.2772C120.49 69.8721 119.761 73.463 118.831 77.0529C117.904 80.6478 116.821 84.2407 115.293 87.8709C114.515 89.6876 113.662 91.5243 112.465 93.3822C111.865 94.3112 111.193 95.2512 110.34 96.1933C109.483 97.1303 108.445 98.0895 107.043 98.9076L106.631 99.1484L106.394 99.2331C103.653 100.207 101.429 99.8507 99.6204 99.4537C97.8012 99.0134 96.2839 98.3162 94.8732 97.5787C93.4716 96.817 92.1937 95.9757 90.9913 95.0608C90.3896 94.6044 89.8201 94.1117 89.2546 93.622C88.6771 93.1263 88.1639 92.6407 87.5834 92.0442L90.7519 87.4599C91.9221 87.8488 93.1949 88.3435 94.4144 88.7042C95.6349 89.0941 96.8393 89.4548 97.9964 89.7087C99.1405 89.9888 100.26 90.1329 101.156 90.154C102.044 90.1843 102.682 89.9132 102.517 89.8427L101.868 90.1671C102.117 89.9858 102.913 89.0961 103.53 87.9264C104.175 86.7596 104.791 85.3611 105.331 83.8952C106.404 80.94 107.262 77.7058 108.012 74.4262C108.744 71.1346 109.381 67.7744 109.94 64.39C110.516 61.0298 110.98 57.5397 111.401 54.2521L122.584 55.3826Z" fill="#F9B6B6"/>
<path d="M112.641 49.8661C105.723 55.9104 106.1 70.6216 106.1 70.6216L124.397 77.2251C128.271 71.1738 130.174 59.6313 129.826 54.6752C129.294 47.0652 120.857 42.6874 112.641 49.8661Z" fill="#340C0C"/>
<path d="M111.509 71.9597C111.985 68.4383 112.993 64.1431 115.084 60.789C115.336 63.8691 115.603 67.3582 115.85 71.0559C115.169 71.3139 113.643 71.8035 111.509 71.9597Z" fill="#270202"/>
<path d="M17.5013 189.791L15.2958 182.699L30.6874 174.337L32.893 181.429L17.5013 189.791Z" fill="#F9B6B6"/>
<path d="M15.7717 182.035L21.3551 188.231C21.5573 188.456 21.5543 188.767 21.347 188.979L16.7226 193.703C16.2436 194.193 15.332 194.15 14.8732 193.623C12.9665 191.433 12.1645 190.288 9.70942 187.564C8.19913 185.887 2.90054 180.359 0.815716 178.044C-1.22484 175.78 1.0743 173.73 2.16501 174.524C7.0571 178.084 11.9522 180.938 14.5764 181.392C15.0503 181.473 15.4739 181.706 15.7717 182.035Z" fill="#340C0C"/>
<path d="M24.1372 186.193L24.1342 186.187L25.6656 185.356V185.361L24.1372 186.193Z" fill="#C3C5C5"/>
<path d="M25.6655 185.361V185.356L26.8699 184.701L26.8719 184.705L25.6655 185.361Z" fill="#BBBEBE"/>
<path d="M24.1342 186.187L19.4594 180.441L24.6654 177.61L26.87 184.701L25.6656 185.356L24.1342 186.187Z" fill="#D89793"/>
<path d="M129.328 109.669C129.328 109.669 90.2519 114.912 82.2124 125.605C68.2012 144.239 23.8344 174.937 23.8344 174.937L27.8732 187.926C27.8732 187.926 88.2989 162.401 99.047 141.062C104.958 140.608 111.979 140.873 119.051 141.137C135.599 141.757 152.427 142.375 155.972 133.782C159.342 125.614 157.685 113.412 157.685 113.412L129.328 109.669Z" fill="#BA3E30"/>
<path d="M27.8732 187.926L26.87 184.701L24.6655 177.61L23.8344 174.937C23.8344 174.937 68.2013 144.239 82.2124 125.605C90.2388 114.931 129.199 109.686 129.328 109.669L157.685 113.412C157.685 113.412 158.093 116.415 158.092 120.439C158.092 124.525 157.671 129.666 155.972 133.782C153.346 140.148 143.432 141.458 131.741 141.458C127.65 141.458 123.34 141.298 119.051 141.137C114.761 140.977 110.49 140.817 106.475 140.817C103.87 140.817 101.372 140.884 99.047 141.062C98.6686 141.813 98.2289 142.569 97.7339 143.328C94.665 148.026 89.4298 152.872 83.1603 157.561C80.7001 159.401 78.083 161.215 75.3734 162.988C70.4118 166.234 65.1455 169.338 59.9958 172.185C53.4968 175.777 47.185 178.96 41.8985 181.508C40.5753 182.147 39.3126 182.747 38.1313 183.301C34.9698 184.786 32.3668 185.958 30.5728 186.752C28.8492 187.515 27.8732 187.926 27.8732 187.926Z" fill="#B31F1F"/>
<path d="M28.6892 189.855L20.0893 175.974L25.5901 171.454L33.86 186.387L28.6892 189.855Z" fill="#BA3E30"/>
<path d="M14.4395 181.718C13.3538 180.909 12.73 180.154 12.7531 179.667C12.7632 179.463 12.8859 179.298 13.1294 179.161C13.2421 179.097 13.3397 179.09 13.4383 179.14C13.9062 179.374 14.2694 180.71 14.4395 181.718ZM13.0499 180.948C13.5088 181.457 14.1225 181.926 14.5713 182.239L14.7595 182.247L14.842 182.076C14.8047 181.79 14.4636 179.266 13.5933 178.83C13.391 178.73 13.1727 178.74 12.9594 178.86C12.6092 179.058 12.4241 179.323 12.409 179.65C12.3889 180.065 12.6656 180.521 13.0499 180.948Z" fill="#BA3E30"/>
<path d="M16.0957 179.442C16.1913 179.549 16.2366 179.674 16.2306 179.82C16.2115 180.441 15.3451 181.306 14.8078 181.763C14.7807 180.918 15.161 179.582 15.6299 179.31C15.7194 179.258 15.8472 179.219 16.0374 179.386L16.0957 179.442ZM14.5422 182.213L14.6096 182.26L14.7756 182.235C14.8471 182.179 16.5425 180.872 16.5767 179.832C16.5858 179.552 16.4801 179.314 16.2648 179.125C16.0052 178.899 15.7184 178.858 15.4558 179.011C14.7414 179.426 14.3329 181.287 14.5009 182.131L14.5422 182.213Z" fill="#BA3E30"/>
<path d="M92.6868 88.8562L86.7774 83.1343L82.6682 91.1383C82.6682 91.1383 89.8564 95.0788 91.6514 93.2783L92.6868 88.8562Z" fill="#F9B6B6"/>
<path d="M78.9151 83.0729L77.8475 89.6784L82.6682 91.1383L86.7775 83.1343L78.9151 83.0729Z" fill="#F9B6B6"/>
<path d="M157.319 44.8879C156.568 42.9241 155.246 40.9715 153.146 41.0028C152.709 41.0088 150.146 41.0491 149.661 41.0632C147.245 41.1287 144.226 41.2889 141.304 41.6556C136.275 42.2894 129.022 43.3926 124.695 44.5544C122.183 45.2365 119.762 46.0959 117.838 46.8284L117.765 46.8566C115.508 47.7392 114.121 50.0163 114.349 52.4314C115.35 63.0832 117.859 92.6527 116.409 107.964L157.685 113.412C160.168 105.527 161.151 87.483 161.168 72.7717C161.179 63.9124 160.386 52.912 157.319 44.8879Z" fill="#340C0C"/>
<path d="M160.865 86.828C161.016 83.2885 161.108 79.7077 161.146 76.2468C161.111 79.6412 161.023 83.1495 160.877 86.6205C160.874 86.69 160.87 86.7595 160.865 86.828Z" fill="#C0C1C1"/>
<path d="M144.324 93.6995C138.781 93.6995 133.464 92.9882 130.909 91.6945L149.502 88.4461L154.909 69.7692L160.143 65.2413L160.963 65.1768C161.112 67.7985 161.164 70.3657 161.164 72.7737C161.164 73.9133 161.158 75.073 161.146 76.2467C161.108 79.7077 161.016 83.2885 160.865 86.828C160.67 89.4426 158.877 91.7116 156.334 92.3857C152.961 93.2814 148.577 93.6995 144.324 93.6995Z" fill="#270202"/>
<path d="M94.2041 71.2715C94.2041 71.2715 97.8294 69.2604 104.644 71.2161C111.46 73.1717 116.248 70.8916 116.248 70.8916L118.788 75.6674L95.6399 76.4765L94.2041 71.2715Z" fill="#BA3E30"/>
<path d="M96.623 72.9854L94.6458 72.8745L94.2836 71.5597L94.2041 71.2715C94.2041 71.2715 95.8452 70.3617 98.9936 70.3617C100.526 70.3617 102.415 70.5763 104.644 71.2161C106.69 71.8035 108.552 72.008 110.157 72.008C113.902 72.008 116.248 70.8917 116.248 70.8917L117.995 74.1763L96.623 72.9854Z" fill="#CADDF2"/>
<path d="M94.2041 71.2715C94.2041 71.2715 94.0532 69.8096 89.6562 69.6645C80.8077 69.3703 77.0718 67.1043 77.0718 67.1043L76.7095 69.3914L95.64 76.4765L94.2041 71.2715Z" fill="#BA3E30"/>
<path d="M94.6459 72.8745L92.6697 72.7647L77.0647 68.3003C77.0043 68.2832 76.946 68.2711 76.8876 68.265L77.0718 67.1043C77.0718 67.1043 80.8077 69.3703 89.6562 69.6645C94.0532 69.8096 94.2042 71.2715 94.2042 71.2715L94.6459 72.8745Z" fill="#CADDF2"/>
<path d="M101.637 105.264L85.2933 100.588C84.8878 100.472 84.5447 100.125 84.432 99.7146L76.0474 69.325C75.8562 68.6348 76.3835 68.1048 77.0647 68.3003L92.6696 72.7647L101.637 105.264Z" fill="#BA3E30"/>
<path d="M127.125 106.686L105.59 105.485L96.623 72.9852L118.408 74.1993C118.884 74.2265 119.339 74.6084 119.473 75.094L127.902 105.643C128.063 106.227 127.698 106.718 127.125 106.686Z" fill="#BA3E30"/>
<path d="M101.637 105.264L105.59 105.485L96.623 72.9854L92.6697 72.7647L101.637 105.264Z" fill="#BA3E30"/>
<path d="M105.59 105.485L101.637 105.264L92.6697 72.7647L96.623 72.9854L105.59 105.485Z" fill="#8E2F29"/>
<path d="M159.341 52.2662C159.554 53.7261 159.693 54.9473 159.789 56.2742C159.894 57.576 159.969 58.8747 160.024 60.1744C160.114 62.7759 160.093 65.3875 159.936 68.0071C159.624 73.2443 158.808 78.5551 157.027 83.8196C157.004 83.9052 156.849 84.3435 156.72 84.6589C156.582 84.9873 156.422 85.3037 156.255 85.6069C155.914 86.1974 155.523 86.7445 155.12 87.1898C154.307 88.1067 153.454 88.7596 152.642 89.2583C151.012 90.2507 149.511 90.7737 148.075 91.1908C145.207 92.0029 142.533 92.2588 139.903 92.4351C134.639 92.7061 129.63 92.3535 124.529 91.5706L124.783 86.0009C129.504 85.5344 134.353 84.9329 138.85 84.0201C141.091 83.5717 143.283 82.9722 145.088 82.2387C145.979 81.877 146.766 81.4397 147.189 81.072C147.4 80.8906 147.499 80.7455 147.482 80.7234L147.393 80.7929L147.319 80.9057C147.292 80.9309 147.253 81.0841 147.302 80.8695C147.803 78.7748 148.148 76.5934 148.411 74.3688C148.621 72.129 148.77 69.861 148.81 67.5618C148.832 65.2636 148.808 62.9492 148.703 60.6318C148.657 59.4742 148.594 58.3145 148.503 57.1639L148.359 55.446L148.209 53.8279L159.341 52.2662Z" fill="#F9B6B6"/>
<path d="M159.342 43.3654C154.446 39.6214 147.695 39.7332 144.929 49.5769C143.116 56.0303 144.091 69.0105 144.091 69.0105L163.618 68.6115C165.804 58.2922 164.288 47.1488 159.342 43.3654Z" fill="#340C0C"/>
<path d="M139.391 25.2205L135.282 30.0467L129.69 36.625C130.036 37.4773 130.34 38.3469 130.566 39.1982C131.535 42.6874 128.396 43.3957 125.512 45.1559C125.512 45.1559 121.218 50.8536 131.506 49.2072C141.793 47.5609 143.314 42.1604 143.314 42.1604C138.734 38.9826 139.067 31.2436 139.391 25.2205Z" fill="#F9B6B6"/>
<path d="M134.681 48.5129C133.734 48.7789 132.681 49.0248 131.511 49.2061C129.69 49.4933 128.329 49.5568 127.318 49.461L127.084 50.655C126.712 50.92 126.623 52.3184 128.973 53.9829C131.455 53.4741 135.312 51.3421 134.681 48.5129Z" fill="#BA3E30"/>
<path d="M141.536 40.3991C141.536 40.3991 139.585 45.6323 132.498 47.5467C133.539 50.3214 131.854 53.4741 131.854 53.4741C131.854 53.4741 141.765 50.0706 143.828 46.6731C145.894 43.2767 145.003 41.2938 145.003 41.2938C144.005 40.791 142.864 40.4737 141.536 40.3991Z" fill="#340C0C"/>
<path d="M127.541 53.2344C127.541 53.2344 127.614 48.908 128.883 47.4572C128.219 45.5045 128.574 44.4607 129.593 42.7318C128.056 43.1459 125.648 43.9499 124.258 46.2179C122.869 48.4859 123.81 53.2939 127.541 53.2344Z" fill="#340C0C"/>
<path d="M130.566 39.1982C130.415 38.6269 130.228 38.0466 130.016 37.4702C129.913 37.1871 129.803 36.905 129.69 36.6249L130.016 36.241L133.932 31.6355L134.654 30.7862L135.282 30.0466C135.459 30.6864 135.596 31.5962 135.631 32.5564C135.725 35.1106 132.918 38.2813 130.566 39.1982Z" fill="#D89793"/>
<path d="M116.055 13.6518C114.108 17.7334 115.78 27.421 124.984 23.5691C134.189 19.7172 119.213 7.02717 116.055 13.6518Z" fill="#340C0C"/>
<path d="M136.256 22.1294C135.415 23.8936 136.137 28.0779 140.114 26.4145C144.091 24.75 137.62 19.2679 136.256 22.1294Z" fill="#340C0C"/>
<path d="M137.373 24.9494C136.089 26.4214 135.659 30.6471 139.936 30.1171C144.214 29.5871 139.457 22.5625 137.373 24.9494Z" fill="#340C0C"/>
<path d="M138.381 13.941C140.052 21.7485 141.423 26.22 138.697 31.3645C134.598 39.1045 124.279 38.5604 120.341 31.4874C116.796 25.1207 114.658 13.4221 121.215 8.02265C127.675 2.70179 136.71 6.13249 138.381 13.941Z" fill="#F9B6B6"/>
<path d="M136.997 4.86208C135.4 -2.06381 126.121 0.34524 121.391 4.53664C116.583 8.79756 115.451 12.0197 111.46 14.4952C118.825 15.4746 129.239 12.5859 131.19 10.1003C130.968 12.6313 132.9 15.5229 134.363 16.4106C134.117 18.5869 134.381 22.9304 134.381 22.9304L137.746 21.2196L141.664 19.6448C147.415 9.87866 144.008 3.84042 136.997 4.86208Z" fill="#340C0C"/>
<path d="M128.611 19.3123C128.483 19.3123 128.371 19.2196 128.348 19.0906C128.324 18.9445 128.421 18.8075 128.565 18.7823L139.472 16.9183C139.622 16.8921 139.753 16.9909 139.778 17.136C139.804 17.2811 139.706 17.4181 139.562 17.4433L128.656 19.3082L128.611 19.3123Z" fill="white"/>
<path d="M124.63 16.6452C123.989 16.6452 123.45 16.9062 123.069 17.4009C122.463 18.1888 122.326 19.4815 122.7 20.8588C123.356 23.2739 125.348 25.2487 127.137 25.2628C127.787 25.284 128.33 25.0059 128.713 24.5061C129.319 23.7192 129.457 22.4266 129.084 21.0482C128.427 18.6331 126.436 16.6583 124.646 16.6452H124.63ZM127.154 25.7948H127.133C125.12 25.7807 122.902 23.6286 122.187 20.9989C121.763 19.4382 121.931 18.0085 122.647 17.0755C123.133 16.4457 123.817 16.1122 124.629 16.1122H124.65C126.663 16.1274 128.881 18.2785 129.596 20.9092C130.019 22.4699 129.851 23.8996 129.135 24.8316C128.65 25.4623 127.965 25.7948 127.154 25.7948Z" fill="white"/>
<path d="M120.919 22.5324L120.781 22.4931C120.656 22.4165 120.617 22.2523 120.693 22.1263C121.329 21.0896 122.687 21.3807 122.743 21.3948C122.886 21.4261 122.975 21.5681 122.944 21.7122C122.912 21.8563 122.769 21.9419 122.627 21.9147C122.616 21.9117 121.583 21.6951 121.147 22.4064L120.919 22.5324Z" fill="white"/>
<path d="M143.059 19.9199C142.56 22.0952 141.197 23.8715 139.747 24.8629C137.566 26.3561 135.858 24.5002 135.947 21.9047C136.026 19.5692 137.258 15.9783 139.696 15.528C142.098 15.0846 143.629 17.4332 143.059 19.9199Z" fill="#F9B6B6"/>
<path d="M125.945 20.5002C126.234 21.0806 126.167 21.7143 125.795 21.9158C125.423 22.1163 124.889 21.81 124.6 21.2307C124.312 20.6503 124.38 20.0176 124.751 19.8161C125.123 19.6146 125.658 19.9209 125.945 20.5002Z" fill="#340C0C"/>
<path d="M119.569 23.1208C119.825 23.7163 119.723 24.345 119.341 24.5253C118.959 24.7057 118.442 24.3712 118.186 23.7767C117.93 23.1823 118.032 22.5536 118.414 22.3722C118.795 22.1919 119.314 22.5264 119.569 23.1208Z" fill="#340C0C"/>
<path d="M116.347 19.5631C116.464 19.5298 116.563 19.4401 116.603 19.3162C117.137 17.6719 118.485 17.2528 118.5 17.2487C118.701 17.1883 118.814 16.9767 118.754 16.7762C118.695 16.5757 118.484 16.4608 118.285 16.5193L118.283 16.5203C118.212 16.5414 116.536 17.0623 115.88 19.0804C115.816 19.2799 115.925 19.4945 116.124 19.56L116.347 19.5631Z" fill="#340C0C"/>
<path d="M117.104 19.5611C116.53 19.5611 116.047 19.7949 115.707 20.2372C115.162 20.9465 115.038 22.1122 115.376 23.3566C115.969 25.5389 117.767 27.3243 119.381 27.3364H119.396C119.97 27.3364 120.453 27.1026 120.794 26.6593C121.339 25.951 121.463 24.7843 121.125 23.5409C120.532 21.3576 118.734 19.5732 117.12 19.5611H117.104ZM119.397 27.8694L119.377 27.8684C117.54 27.8563 115.515 25.8936 114.863 23.4966C114.476 22.0709 114.63 20.7651 115.286 19.9118C115.731 19.3334 116.359 19.0281 117.103 19.0281H117.124C118.96 19.0412 120.986 21.0029 121.638 23.4019C122.025 24.8256 121.871 26.1314 121.215 26.9847C120.771 27.5631 120.142 27.8694 119.397 27.8694Z" fill="white"/>
<path d="M121.674 22.1908C121.674 22.1908 121.566 25.6477 120.795 27.5993C122.003 28.1011 123.406 27.1036 123.406 27.1036L121.674 22.1908Z" fill="#F4827F"/>
<path d="M124.718 29.4219C127.159 28.6964 128.072 26.768 128.114 26.6783C128.157 26.5836 128.116 26.4697 128.02 26.4264C127.926 26.3821 127.813 26.4234 127.769 26.5191C127.759 26.5413 126.721 28.7398 123.92 29.2183C123.815 29.2355 123.747 29.3342 123.765 29.438C123.783 29.5418 123.881 29.6103 123.984 29.5921C124.243 29.5478 124.487 29.4904 124.718 29.4219Z" fill="#340C0C"/>
<path d="M126.868 15.7908L127.003 15.6568C127.109 15.4755 127.048 15.2427 126.867 15.1359C125.079 14.084 123.51 14.8881 123.446 14.9223C123.262 14.9969 123.188 15.2488 123.286 15.4352C123.385 15.6216 123.613 15.6921 123.798 15.5954C123.864 15.5621 125.078 14.9646 126.483 15.7918C126.606 15.8644 126.753 15.8583 126.868 15.7908Z" fill="#340C0C"/>
<path d="M126.784 86.3413L120.48 83.6693L120.694 91.6944C120.694 91.6944 126.942 94.2284 127.98 90.8934L126.784 86.3413Z" fill="#F9B6B6"/>
<path d="M112.63 85.4658L114.018 91.2027L120.694 91.6944L120.48 83.6693L112.63 85.4658Z" fill="#F9B6B6"/>
</svg>
