<svg width="108" height="46" viewBox="0 0 108 46" fill="none" xmlns="http://www.w3.org/2000/svg">
<path fill-rule="evenodd" clip-rule="evenodd" d="M15.415 9.5975C15.2385 9.2173 15.1374 8.79152 15.1374 8.33988H15.1336V4.69955C15.1336 4.24979 15.2348 3.82212 15.4131 3.44192H6.89432C6.57813 3.44192 6.29158 3.57774 6.08173 3.79628C5.86152 4.02562 5.72554 4.34519 5.72554 4.69955V8.33988C5.72554 8.69423 5.86152 9.01381 6.08173 9.24315C6.29158 9.46168 6.57813 9.5975 6.89432 9.5975H15.415ZM30.8151 25.9381L37.0824 24.9559H37.0843C37.2734 24.9268 37.4428 24.8201 37.5694 24.6697C37.6964 24.5174 37.7736 24.3153 37.7736 24.0987V19.3845L30.8151 19.5955V25.9381ZM4.03779 26.4156V30.6504C4.03779 30.7938 4.09472 30.9334 4.18647 31.0433C4.2674 31.1406 4.36856 31.2088 4.47161 31.2196L22.796 33.4265V28.9012C22.796 28.4313 22.9743 27.9796 23.259 27.6291C23.3418 27.5261 23.4354 27.4345 23.5366 27.3499L4.0392 26.4156H4.03779ZM41.6483 9.59797C41.7824 9.59045 41.9203 9.6163 42.0506 9.6821C42.4421 9.88042 42.5988 10.356 42.4021 10.747C41.7382 12.0596 41.4056 13.3262 41.4056 14.5509C41.4056 15.7606 41.7311 16.9374 42.3819 18.0789C42.5983 18.4591 42.4642 18.9437 42.084 19.1603C41.957 19.2322 41.821 19.2651 41.685 19.2632L39.3654 19.3328V24.0968C39.3654 24.2698 39.347 24.4404 39.3122 24.6053L40.8579 24.3633C41.0216 24.3266 41.1981 24.3412 41.3618 24.4183C41.7603 24.602 41.9349 25.0739 41.7495 25.47C41.2423 26.5627 40.9887 27.6107 40.9887 28.6169C40.9887 29.6024 41.2329 30.5536 41.7199 31.4696C41.742 31.5081 41.7603 31.5504 41.7754 31.5927L41.7787 31.6054L41.7824 31.6129L41.7843 31.6181C41.8083 31.6952 41.8191 31.7741 41.8191 31.8531V31.8827C41.8191 31.8883 41.8191 31.8916 41.8173 31.8973V31.8991C41.8121 32.0021 41.7862 32.1012 41.7439 32.191C41.7401 32.1966 41.7382 32.2023 41.7349 32.2074V32.2093C41.6869 32.3028 41.6206 32.3893 41.5364 32.4607L41.5269 32.4683L41.5199 32.4739L41.5161 32.4772C41.4498 32.5289 41.3726 32.5712 41.2898 32.6003L41.2771 32.606L41.2696 32.6097L41.2644 32.6116C41.222 32.6243 41.1778 32.6351 41.1355 32.6407L24.7407 35.211C24.6964 35.2218 24.6508 35.2293 24.6028 35.2312C24.5332 35.2401 24.4706 35.2439 24.4155 35.2439C24.2335 35.2439 24.0608 35.2147 23.8989 35.1597L4.28387 32.7987C3.76206 32.7361 3.29672 32.4575 2.96782 32.0627C2.64646 31.6768 2.44602 31.174 2.44602 30.6509V26.3385L0.902242 26.2652C0.464658 26.245 0.126354 25.8723 0.146586 25.4353C0.154115 25.2994 0.192697 25.1749 0.25857 25.0663C0.878245 23.9427 1.18879 22.8157 1.18879 21.685C1.18879 20.5556 0.880127 19.423 0.264216 18.2702C0.187051 18.1471 0.142822 18.0042 0.142822 17.8501C0.142822 17.4111 0.499476 17.0549 0.938942 17.0549H1.31536C1.23302 16.8147 1.18879 16.5577 1.18879 16.2912V10.6977C1.18879 10.6906 1.19067 10.6535 1.19443 10.5858C1.22172 10.0003 1.4664 9.4786 1.84658 9.10263C2.23475 8.71679 2.76033 8.48369 3.34471 8.48369V8.4804C3.61103 8.49309 3.87781 8.5039 4.14412 8.51706C4.14036 8.46019 4.13848 8.40145 4.13848 8.3427V4.7019C4.13848 3.9274 4.44385 3.22057 4.93648 2.70643C5.43806 2.18148 6.1349 1.85486 6.89949 1.85486H17.8297C17.8532 1.85486 17.8772 1.85674 17.8993 1.85862L39.795 1.8605C40.2325 1.84217 40.6038 2.18148 40.6221 2.61855C40.6405 3.05561 40.3003 3.42642 39.8632 3.44474C39.5578 3.45743 39.2821 3.59889 39.0798 3.81931C38.8723 4.04489 38.7438 4.35694 38.7438 4.7019V8.3427C38.7438 8.68765 38.8723 8.99971 39.0798 9.22529C39.2821 9.4457 39.5578 9.58716 39.8632 9.59985H41.6512L41.6483 9.59797ZM24.8494 12.3369L23.6914 13.477C23.5465 13.6439 23.331 13.7487 23.0924 13.7487C22.653 13.7487 22.2963 13.3925 22.2963 12.9535V11.1822H17.8984C17.8744 11.1841 17.8523 11.186 17.8283 11.186H6.89808C6.13348 11.186 5.439 10.8589 4.93507 10.3339C4.87249 10.2677 4.81226 10.2 4.75674 10.1286L3.37294 10.0642C3.35083 10.0623 3.38376 10.0661 3.34518 10.0661V10.0623C3.20026 10.0623 3.06805 10.1229 2.96688 10.2221C2.86008 10.3283 2.79044 10.481 2.78103 10.6573C2.77915 10.6756 2.78291 10.6516 2.78291 10.6958V16.2893C2.78291 16.4947 2.86384 16.6874 2.99229 16.8288C3.10475 16.952 3.24967 17.0342 3.40588 17.053H3.40964C3.44258 17.053 3.47599 17.0544 3.50704 17.0582L24.9214 18.0239C24.8846 17.8698 24.8607 17.7081 24.855 17.5432C24.8536 17.4586 24.8517 17.5136 24.8517 17.4731V12.3364L24.8494 12.3369ZM27.4043 7.31395H23.8881V11.0572L25.0903 9.87478C25.3989 9.56977 25.8953 9.57165 26.204 9.87478L26.6138 10.2785L26.6232 10.2879L27.4043 11.0572V7.31395ZM37.1511 7.31395H28.9961V9.5975H37.4377C37.2537 9.21589 37.1488 8.78776 37.1488 8.338V7.31395H37.1511ZM20.4938 7.31395C20.0543 7.31395 19.6976 6.95772 19.6976 6.51877C19.6976 6.0803 20.0543 5.72407 20.4938 5.72407H37.1511V4.69955C37.1511 4.24979 37.2556 3.82212 37.4395 3.44192L17.8984 3.44004C17.8744 3.44192 17.8523 3.4438 17.8287 3.4438C17.5398 3.4438 17.2716 3.57633 17.0768 3.78923C16.8637 4.01857 16.731 4.34143 16.731 4.70143V8.34176H16.7277C16.7277 8.69799 16.8599 9.02086 17.075 9.25443C17.2716 9.46732 17.5379 9.59938 17.8268 9.59938C17.8504 9.59938 17.8744 9.60126 17.8965 9.60314H22.2968V7.31724H20.4919L20.4938 7.31395ZM2.74103 20.9302L25.6808 22.0553C26.1179 22.0755 26.4562 22.4482 26.436 22.8852C26.4157 23.3218 26.0426 23.6597 25.6055 23.6395L2.73209 22.5182C2.65117 23.2617 2.46343 24.0014 2.16559 24.7392L3.21908 24.7891H3.2412C3.27413 24.7891 3.30707 24.7909 3.34048 24.7942L29.2247 26.0354V19.643L27.122 19.7074C27.1055 19.7092 27.089 19.7092 27.0721 19.7092C27.0227 19.7111 27.065 19.7125 27.0283 19.7125C26.9399 19.7125 26.8538 19.7074 26.7672 19.6961L3.43223 18.6443H2.18441C2.48178 19.4061 2.66952 20.1679 2.74292 20.9297L2.74103 20.9302ZM39.4821 29.7439L27.186 31.6327C26.7521 31.6989 26.3461 31.3996 26.2816 30.9644C26.2153 30.5297 26.515 30.1255 26.9507 30.0611L39.412 28.1465C39.4524 27.4857 39.579 26.8155 39.7903 26.1346L30.2363 27.6328C30.1756 27.6493 30.1135 27.6601 30.0472 27.6619L24.6748 28.5046C24.6103 28.514 24.5445 28.5615 24.4875 28.6315C24.4231 28.7086 24.3845 28.8058 24.3845 28.9031V33.6046C24.3864 33.6098 24.3864 33.6154 24.3883 33.6211L24.5482 33.6394L39.8749 31.2379C39.691 30.7477 39.5588 30.2505 39.4816 29.7458L39.4821 29.7439ZM39.8439 15.2596L31.3195 15.5717C30.8824 15.5862 30.5144 15.2446 30.498 14.808C30.4834 14.3709 30.825 14.0039 31.2626 13.9874L39.8571 13.6716C39.9418 12.8529 40.1455 12.0211 40.4692 11.1803H39.8533C39.8331 11.1822 39.8128 11.1822 39.7926 11.1803L28.9909 11.1822V12.9535H28.9895C28.9895 13.1537 28.9137 13.3558 28.7613 13.5099C28.4545 13.822 27.9506 13.8258 27.6381 13.5193L26.4364 12.3369V17.4736C26.4364 17.5451 26.4327 17.4478 26.4345 17.4995C26.4402 17.6809 26.5117 17.8388 26.6237 17.9525C26.7121 18.0427 26.8279 18.1015 26.9564 18.1161L27.0777 18.1217L29.9249 18.0352C29.954 18.0315 29.9856 18.0301 30.0166 18.0301C30.0312 18.0301 30.0463 18.0301 30.059 18.0315L38.4752 17.7749C38.5043 17.7711 38.5358 17.7692 38.5669 17.7692C38.582 17.7692 38.5965 17.7692 38.6093 17.7711L40.44 17.7161C40.1126 16.912 39.9126 16.0929 39.8406 15.2577L39.8439 15.2596Z" fill="#F9F9F9"/>
<path d="M63.4336 1.46875H64.1172V6.44922H63.375C63.2578 5.82422 63.069 5.25781 62.8086 4.75C62.5482 4.22917 62.2357 3.78646 61.8711 3.42188C61.5195 3.04427 61.1159 2.75781 60.6602 2.5625C60.2044 2.35417 59.7227 2.25 59.2148 2.25C58.8633 2.25 58.5312 2.3151 58.2188 2.44531C57.9062 2.5625 57.6328 2.73177 57.3984 2.95312C57.1771 3.16146 57.0013 3.41536 56.8711 3.71484C56.7409 4.0013 56.6758 4.30729 56.6758 4.63281C56.6758 5.21875 56.8385 5.70703 57.1641 6.09766C57.5026 6.47526 58.0299 6.76823 58.7461 6.97656L61.6953 7.83594C62.7109 8.1224 63.4987 8.61068 64.0586 9.30078C64.6185 9.97786 64.8984 10.8698 64.8984 11.9766C64.8984 12.6016 64.7812 13.1745 64.5469 13.6953C64.3255 14.2031 64.0065 14.6393 63.5898 15.0039C63.1862 15.3685 62.7044 15.6549 62.1445 15.8633C61.5846 16.0586 60.9727 16.1562 60.3086 16.1562C59.5273 16.1562 58.8047 16.0065 58.1406 15.707C57.4766 15.3945 56.8711 14.9648 56.3242 14.418L55.582 16H54.957V10.707L55.7383 10.6289C55.7904 11.2279 55.9596 11.7878 56.2461 12.3086C56.5326 12.8294 56.8971 13.2786 57.3398 13.6562C57.7956 14.0339 58.3034 14.3333 58.8633 14.5547C59.4362 14.776 60.0286 14.8867 60.6406 14.8867C60.9271 14.8867 61.2266 14.8346 61.5391 14.7305C61.8516 14.6263 62.138 14.4766 62.3984 14.2812C62.6589 14.0859 62.8737 13.8581 63.043 13.5977C63.2253 13.3242 63.3164 13.0182 63.3164 12.6797C63.3164 12.0026 63.1602 11.4427 62.8477 11C62.5352 10.5443 62.0534 10.2253 61.4023 10.043L59.5664 9.55469C58.9154 9.3724 58.3229 9.1901 57.7891 9.00781C57.2682 8.8125 56.819 8.57161 56.4414 8.28516C56.0768 7.98568 55.7904 7.62109 55.582 7.19141C55.3737 6.7487 55.2695 6.18229 55.2695 5.49219C55.2695 4.1901 55.6211 3.16797 56.3242 2.42578C57.0404 1.68359 58.0039 1.3125 59.2148 1.3125C59.918 1.3125 60.5625 1.44922 61.1484 1.72266C61.7474 1.98307 62.3203 2.38021 62.8672 2.91406L63.4336 1.46875ZM69.3711 2.97266V6.60547H72.1641V7.77734H69.3906V13.4805C69.3906 14.5221 69.8008 15.043 70.6211 15.043C71.1159 15.043 71.4935 14.8216 71.7539 14.3789C72.0273 13.9362 72.1641 13.3698 72.1641 12.6797H72.9453V12.8359C72.9453 13.9818 72.6979 14.8216 72.2031 15.3555C71.7083 15.8893 70.9661 16.1562 69.9766 16.1562C69.3125 16.1562 68.7721 15.9544 68.3555 15.5508C67.9388 15.1341 67.7305 14.6133 67.7305 13.9883V7.77734H66.0703V6.60547H66.2266C66.6172 6.60547 66.9362 6.58594 67.1836 6.54688C67.431 6.50781 67.6198 6.41667 67.75 6.27344C67.8932 6.13021 67.9909 5.92839 68.043 5.66797C68.0951 5.39453 68.1211 5.02344 68.1211 4.55469C68.1211 4.4375 68.1211 4.30729 68.1211 4.16406C68.1211 4.02083 68.1211 3.8776 68.1211 3.73438C68.1341 3.57812 68.1406 3.4349 68.1406 3.30469C68.1536 3.17448 68.1732 3.0638 68.1992 2.97266H69.3711ZM73.9609 11.2539C73.9609 10.5638 74.0651 9.91276 74.2734 9.30078C74.4948 8.6888 74.7878 8.15495 75.1523 7.69922C75.5169 7.24349 75.9401 6.88542 76.4219 6.625C76.9167 6.35156 77.444 6.21484 78.0039 6.21484C78.5508 6.21484 79.0651 6.35156 79.5469 6.625C80.0417 6.88542 80.4714 7.24349 80.8359 7.69922C81.2005 8.15495 81.487 8.6888 81.6953 9.30078C81.9167 9.91276 82.0273 10.5638 82.0273 11.2539C82.0273 11.957 81.9167 12.6146 81.6953 13.2266C81.487 13.8385 81.2005 14.3724 80.8359 14.8281C80.4714 15.2839 80.0417 15.6484 79.5469 15.9219C79.0651 16.1823 78.5508 16.3125 78.0039 16.3125C77.444 16.3125 76.9167 16.1823 76.4219 15.9219C75.9401 15.6484 75.5169 15.2839 75.1523 14.8281C74.7878 14.3724 74.4948 13.8385 74.2734 13.2266C74.0651 12.6146 73.9609 11.957 73.9609 11.2539ZM75.6992 11.2539C75.6992 11.8268 75.7578 12.3607 75.875 12.8555C76.0052 13.3503 76.1745 13.7865 76.3828 14.1641C76.6042 14.5417 76.8516 14.8411 77.125 15.0625C77.4115 15.2708 77.7174 15.375 78.043 15.375C78.3685 15.375 78.668 15.2708 78.9414 15.0625C79.2279 14.8411 79.4753 14.5417 79.6836 14.1641C79.8919 13.7865 80.0547 13.3503 80.1719 12.8555C80.3021 12.3607 80.3672 11.8268 80.3672 11.2539C80.3672 10.694 80.3021 10.1667 80.1719 9.67188C80.0547 9.16406 79.8919 8.72786 79.6836 8.36328C79.4753 7.98568 79.2279 7.69271 78.9414 7.48438C78.668 7.26302 78.3685 7.15234 78.043 7.15234C77.7174 7.15234 77.4115 7.26302 77.125 7.48438C76.8516 7.69271 76.6042 7.98568 76.3828 8.36328C76.1745 8.72786 76.0052 9.16406 75.875 9.67188C75.7578 10.1667 75.6992 10.694 75.6992 11.2539ZM89.6055 9.28125C89.319 9.28125 89.0846 9.17057 88.9023 8.94922C88.7331 8.72786 88.6484 8.47396 88.6484 8.1875C88.6484 8.04427 88.7266 7.84245 88.8828 7.58203C88.9609 7.47786 89.0065 7.39974 89.0195 7.34766C89.0326 7.28255 89.0391 7.23698 89.0391 7.21094C88.2188 7.35417 87.5482 8.08333 87.0273 9.39844C86.819 9.91927 86.6562 10.4271 86.5391 10.9219C86.4219 11.4167 86.3633 11.9049 86.3633 12.3867V14.1641C86.3633 14.5938 86.4609 14.8867 86.6562 15.043C86.8516 15.1992 87.0729 15.2773 87.3203 15.2773H87.6719V16H83.3945V15.2578H83.7656C84 15.2578 84.2148 15.1862 84.4102 15.043C84.6055 14.8867 84.7031 14.5938 84.7031 14.1641V8.53906C84.7031 8.16146 84.6706 7.875 84.6055 7.67969C84.5534 7.48438 84.3646 7.3737 84.0391 7.34766L83.1211 7.26953V6.52734L86.3633 6.21484V9.04688H86.4219C86.5 8.66927 86.6237 8.31771 86.793 7.99219C86.9753 7.66667 87.1901 7.38672 87.4375 7.15234C87.6979 6.90495 87.9844 6.71615 88.2969 6.58594C88.6094 6.44271 88.9284 6.37109 89.2539 6.37109C89.6836 6.37109 90.0417 6.52734 90.3281 6.83984C90.6276 7.15234 90.7773 7.52344 90.7773 7.95312C90.7773 8.39583 90.6732 8.72786 90.4648 8.94922C90.2695 9.17057 89.9831 9.28125 89.6055 9.28125ZM95.5234 6.52734V7.26953H95.2891C95.1198 7.26953 94.957 7.32161 94.8008 7.42578C94.6576 7.51693 94.5859 7.66667 94.5859 7.875C94.5859 7.99219 94.6185 8.11589 94.6836 8.24609C94.7487 8.36328 94.8008 8.47396 94.8398 8.57812L96.9297 13.832L98.5508 9.35938C98.7461 8.79948 98.8438 8.38281 98.8438 8.10938C98.8438 7.54948 98.6094 7.26953 98.1406 7.26953H97.75V6.52734H101.383V7.26953H101.207C100.999 7.26953 100.803 7.34115 100.621 7.48438C100.452 7.61458 100.296 7.78385 100.152 7.99219C100.009 8.1875 99.8789 8.40885 99.7617 8.65625C99.6445 8.90365 99.5469 9.13802 99.4688 9.35938L96.7734 16.6445C96.3307 17.8424 95.7773 18.7148 95.1133 19.2617C94.4622 19.8216 93.7917 20.1016 93.1016 20.1016C92.6068 20.1016 92.1901 19.9648 91.8516 19.6914C91.513 19.418 91.3438 19.0273 91.3438 18.5195C91.3438 18.207 91.4544 17.9466 91.6758 17.7383C91.8971 17.5299 92.1836 17.4258 92.5352 17.4258C92.7565 17.4258 92.9518 17.4844 93.1211 17.6016C93.3034 17.7318 93.3945 17.9076 93.3945 18.1289C93.3945 18.4023 93.3555 18.5911 93.2773 18.6953C93.1992 18.8125 93.1602 18.8841 93.1602 18.9102C93.1602 18.9883 93.1862 19.0469 93.2383 19.0859C93.3034 19.138 93.3685 19.1641 93.4336 19.1641C93.8503 19.1641 94.2865 18.9102 94.7422 18.4023C95.1979 17.8945 95.6341 17.0677 96.0508 15.9219L93.082 8.57812C92.9258 8.20052 92.7891 7.88802 92.6719 7.64062C92.5677 7.39323 92.3854 7.26953 92.125 7.26953H91.7344V6.52734H95.5234ZM57.2422 28.0703H57.3008C57.5221 27.5755 57.8607 27.1719 58.3164 26.8594C58.7721 26.5339 59.332 26.3711 59.9961 26.3711C60.5299 26.3711 61.0182 26.5143 61.4609 26.8008C61.9036 27.0872 62.2878 27.4648 62.6133 27.9336C62.9388 28.4023 63.1862 28.9297 63.3555 29.5156C63.5378 30.0885 63.6289 30.668 63.6289 31.2539C63.6289 31.9049 63.5443 32.5365 63.375 33.1484C63.2188 33.7474 62.9714 34.2812 62.6328 34.75C62.3073 35.2188 61.8971 35.5964 61.4023 35.8828C60.9076 36.1693 60.3346 36.3125 59.6836 36.3125C59.0977 36.3125 58.5768 36.1758 58.1211 35.9023C57.6654 35.6289 57.2617 35.2188 56.9102 34.6719L56.5195 36.3125H55.3281C55.3542 36.1693 55.3867 35.9089 55.4258 35.5312C55.4648 35.1536 55.4974 34.6589 55.5234 34.0469C55.5365 33.8516 55.5495 33.6497 55.5625 33.4414C55.5755 33.2331 55.582 33.0312 55.582 32.8359V23.4609C55.582 23.0833 55.5495 22.7969 55.4844 22.6016C55.4323 22.3932 55.237 22.276 54.8984 22.25L54.3125 22.2109V21.4688L57.2422 21.1562V28.0703ZM59.4492 27.3867C59.1237 27.3867 58.8177 27.5039 58.5312 27.7383C58.2578 27.9596 58.0169 28.2656 57.8086 28.6562C57.6133 29.0339 57.457 29.4766 57.3398 29.9844C57.2227 30.4922 57.1641 31.026 57.1641 31.5859C57.1641 32.7839 57.3724 33.7279 57.7891 34.418C58.2188 35.1081 58.8503 35.4531 59.6836 35.4531C60.3346 35.4531 60.862 35.1081 61.2656 34.418C61.6823 33.7279 61.8906 32.7839 61.8906 31.5859C61.8906 30.2188 61.6823 29.1771 61.2656 28.4609C60.862 27.7448 60.2565 27.3867 59.4492 27.3867ZM65.2109 31.2539C65.2109 30.5638 65.3151 29.9128 65.5234 29.3008C65.7448 28.6888 66.0378 28.1549 66.4023 27.6992C66.7669 27.2435 67.1901 26.8854 67.6719 26.625C68.1667 26.3516 68.694 26.2148 69.2539 26.2148C69.8008 26.2148 70.3151 26.3516 70.7969 26.625C71.2917 26.8854 71.7214 27.2435 72.0859 27.6992C72.4505 28.1549 72.737 28.6888 72.9453 29.3008C73.1667 29.9128 73.2773 30.5638 73.2773 31.2539C73.2773 31.957 73.1667 32.6146 72.9453 33.2266C72.737 33.8385 72.4505 34.3724 72.0859 34.8281C71.7214 35.2839 71.2917 35.6484 70.7969 35.9219C70.3151 36.1823 69.8008 36.3125 69.2539 36.3125C68.694 36.3125 68.1667 36.1823 67.6719 35.9219C67.1901 35.6484 66.7669 35.2839 66.4023 34.8281C66.0378 34.3724 65.7448 33.8385 65.5234 33.2266C65.3151 32.6146 65.2109 31.957 65.2109 31.2539ZM66.9492 31.2539C66.9492 31.8268 67.0078 32.3607 67.125 32.8555C67.2552 33.3503 67.4245 33.7865 67.6328 34.1641C67.8542 34.5417 68.1016 34.8411 68.375 35.0625C68.6615 35.2708 68.9674 35.375 69.293 35.375C69.6185 35.375 69.918 35.2708 70.1914 35.0625C70.4779 34.8411 70.7253 34.5417 70.9336 34.1641C71.1419 33.7865 71.3047 33.3503 71.4219 32.8555C71.5521 32.3607 71.6172 31.8268 71.6172 31.2539C71.6172 30.694 71.5521 30.1667 71.4219 29.6719C71.3047 29.1641 71.1419 28.7279 70.9336 28.3633C70.7253 27.9857 70.4779 27.6927 70.1914 27.4844C69.918 27.263 69.6185 27.1523 69.293 27.1523C68.9674 27.1523 68.6615 27.263 68.375 27.4844C68.1016 27.6927 67.8542 27.9857 67.6328 28.3633C67.4245 28.7279 67.2552 29.1641 67.125 29.6719C67.0078 30.1667 66.9492 30.694 66.9492 31.2539ZM74.6836 31.2539C74.6836 30.5638 74.7878 29.9128 74.9961 29.3008C75.2174 28.6888 75.5104 28.1549 75.875 27.6992C76.2396 27.2435 76.6628 26.8854 77.1445 26.625C77.6393 26.3516 78.1667 26.2148 78.7266 26.2148C79.2734 26.2148 79.7878 26.3516 80.2695 26.625C80.7643 26.8854 81.194 27.2435 81.5586 27.6992C81.9232 28.1549 82.2096 28.6888 82.418 29.3008C82.6393 29.9128 82.75 30.5638 82.75 31.2539C82.75 31.957 82.6393 32.6146 82.418 33.2266C82.2096 33.8385 81.9232 34.3724 81.5586 34.8281C81.194 35.2839 80.7643 35.6484 80.2695 35.9219C79.7878 36.1823 79.2734 36.3125 78.7266 36.3125C78.1667 36.3125 77.6393 36.1823 77.1445 35.9219C76.6628 35.6484 76.2396 35.2839 75.875 34.8281C75.5104 34.3724 75.2174 33.8385 74.9961 33.2266C74.7878 32.6146 74.6836 31.957 74.6836 31.2539ZM76.4219 31.2539C76.4219 31.8268 76.4805 32.3607 76.5977 32.8555C76.7279 33.3503 76.8971 33.7865 77.1055 34.1641C77.3268 34.5417 77.5742 34.8411 77.8477 35.0625C78.1341 35.2708 78.4401 35.375 78.7656 35.375C79.0911 35.375 79.3906 35.2708 79.6641 35.0625C79.9505 34.8411 80.1979 34.5417 80.4062 34.1641C80.6146 33.7865 80.7773 33.3503 80.8945 32.8555C81.0247 32.3607 81.0898 31.8268 81.0898 31.2539C81.0898 30.694 81.0247 30.1667 80.8945 29.6719C80.7773 29.1641 80.6146 28.7279 80.4062 28.3633C80.1979 27.9857 79.9505 27.6927 79.6641 27.4844C79.3906 27.263 79.0911 27.1523 78.7656 27.1523C78.4401 27.1523 78.1341 27.263 77.8477 27.4844C77.5742 27.6927 77.3268 27.9857 77.1055 28.3633C76.8971 28.7279 76.7279 29.1641 76.5977 29.6719C76.4805 30.1667 76.4219 30.694 76.4219 31.2539ZM86.6953 31.2344L89.6055 28.4414C89.7096 28.3372 89.8008 28.2201 89.8789 28.0898C89.9701 27.9596 90.0156 27.8294 90.0156 27.6992C90.0156 27.582 89.957 27.4844 89.8398 27.4062C89.7357 27.3151 89.5599 27.2695 89.3125 27.2695H88.7266V26.5273H92.9258V27.2695H92.6133C92.2617 27.2695 91.9688 27.3607 91.7344 27.543C91.513 27.7253 91.2917 27.9271 91.0703 28.1484L89.1367 30.0039L91.7344 33.793C91.8385 33.9492 91.9492 34.1185 92.0664 34.3008C92.1966 34.4701 92.3203 34.6263 92.4375 34.7695C92.5677 34.9128 92.6979 35.0299 92.8281 35.1211C92.9714 35.2122 93.1081 35.2578 93.2383 35.2578H93.7266V36H89.5273V35.2578H89.9375C90.1068 35.2578 90.237 35.2448 90.3281 35.2188C90.4323 35.1797 90.4844 35.0951 90.4844 34.9648C90.4844 34.8867 90.4518 34.8151 90.3867 34.75C90.3346 34.6719 90.25 34.5417 90.1328 34.3594L87.8867 31.0977L86.6953 32.3477V34.1641C86.6953 34.6068 86.793 34.9062 86.9883 35.0625C87.1836 35.2057 87.3984 35.2773 87.6328 35.2773H87.9844V36H83.8633V35.2578H84.0781C84.3255 35.2578 84.5469 35.1862 84.7422 35.043C84.9375 34.8867 85.0352 34.5938 85.0352 34.1641V23.4414C85.0352 23.0638 85.0026 22.7773 84.9375 22.582C84.8854 22.3867 84.6901 22.276 84.3516 22.25L83.8438 22.2109V21.4688L86.6953 21.1562V31.2344Z" fill="#FCFCFC"/>
<rect y="43" width="108" height="3" rx="1.5" fill="#CE2020"/>
</svg>
