<svg width="14" height="18" viewBox="0 0 14 18" fill="none" xmlns="http://www.w3.org/2000/svg">
<path d="M0.559622 16.7532L0.548156 16.7626C0.545217 16.7608 0.540652 16.7573 0.534699 16.7505C0.517813 16.7315 0.5 16.696 0.5 16.6471V0.61656C0.5 0.567724 0.517813 0.532139 0.534699 0.513125C0.54214 0.504746 0.547414 0.501287 0.550052 0.5H12.5911C12.5937 0.501287 12.599 0.504746 12.6064 0.513125C12.6233 0.532139 12.6411 0.567724 12.6411 0.61656V16.6471C12.6411 16.696 12.6233 16.7315 12.6064 16.7505C12.6021 16.7555 12.5984 16.7587 12.5957 16.7608C12.5901 16.7577 12.5823 16.7529 12.572 16.7455L6.88701 12.0982L6.57056 11.8395L6.25411 12.0982L0.559622 16.7532ZM0.551978 0.499342C0.551989 0.499406 0.551511 0.499619 0.550511 0.499786L0.551978 0.499342ZM12.5891 0.499342C12.5891 0.499277 12.5896 0.499359 12.5906 0.499785L12.5891 0.499342Z" stroke="#9F9F9F"/>
</svg>
