<svg width="17" height="18" viewBox="0 0 17 18" fill="none" xmlns="http://www.w3.org/2000/svg">
<path fill-rule="evenodd" clip-rule="evenodd" d="M0.885014 1.73926C0.91202 1.5122 0.991624 1.29457 1.1175 1.10367C1.24337 0.912772 1.41204 0.753872 1.6101 0.639599C1.80816 0.525327 2.03014 0.458835 2.25841 0.445408C2.48667 0.431981 2.71492 0.47199 2.92501 0.562255C3.98701 1.01625 6.36701 2.09525 9.38701 3.83825C12.408 5.58225 14.533 7.10526 15.456 7.79626C16.244 8.38726 16.246 9.55926 15.457 10.1523C14.543 10.8393 12.444 12.3423 9.38701 14.1083C6.32701 15.8743 3.97501 16.9403 2.92301 17.3883C2.01701 17.7753 1.00301 17.1883 0.885014 16.2113C0.747014 15.0693 0.489014 12.4763 0.489014 8.97425C0.489014 5.47425 0.746014 2.88226 0.885014 1.73926Z" fill="white"/>
</svg>
