<svg width="22" height="22" viewBox="0 0 22 22" fill="none" xmlns="http://www.w3.org/2000/svg">
<path d="M14.9063 13.4652L14.6355 13.8136L14.9477 14.1256L20.689 19.8633C20.878 20.1038 20.8443 20.4545 20.6119 20.6543C20.4049 20.8291 20.0963 20.8315 19.8825 20.6589L14.1454 14.9286L13.8335 14.6171L13.4853 14.8875C9.97851 17.6118 4.91837 16.9772 2.1906 13.4713C-0.53372 9.96245 0.10199 4.91254 3.61141 2.19155L3.61178 2.19126C7.11868 -0.533104 12.1786 0.101701 14.9031 3.60732C17.1572 6.50846 17.1599 10.5646 14.9063 13.4652ZM1.63026 8.53463C1.63026 12.351 4.73002 15.439 8.54536 15.439C12.361 15.439 15.4573 12.3507 15.4573 8.53463C15.4573 4.72203 12.3645 1.63029 8.54536 1.63029C4.72635 1.63029 1.63026 4.72505 1.63026 8.53463Z" fill="#BCDAFF" stroke="white"/>
</svg>
