<svg width="1054" height="94" viewBox="0 0 1054 94" fill="none" xmlns="http://www.w3.org/2000/svg">
<path d="M1007.79 45.6417C1007.31 45.247 1006.72 44.8726 1005.94 44.5678C1004.88 42.4637 1002.64 41.001 1000.04 41.001C998.85 41.001 997.738 41.3289 996.79 41.8572C996.139 41.326 995.421 41.001 994.635 41.001C994.446 41.001 994.283 41.0474 994.107 41.0765C993.253 38.3367 991.898 36.5345 990.326 36.5345C990.231 36.5345 990.123 36.5925 990.014 36.607C989.486 28.0222 988.307 22.061 986.952 22.061C985.881 22.061 984.946 25.8165 984.323 31.65C984.039 30.7881 983.754 30.3063 983.429 30.3063C982.548 30.3063 981.762 34.3288 981.396 40.0955C981.315 40.0839 981.247 40.0433 981.166 40.0433C980.109 40.0433 979.174 41.2738 978.618 43.1457C978.496 43.1254 978.388 43.0471 978.279 43.0471C977.737 43.0471 977.277 43.317 976.857 43.6885C976.193 43.317 975.461 43.0471 974.648 43.0471C974.092 43.0471 973.577 43.169 973.076 43.3489C972.683 43.0239 972.222 42.8207 971.721 42.8207C971.436 42.8207 971.179 42.8991 970.908 43.0122C970.732 42.397 970.528 42.0284 970.284 42.0284C970.23 42.0284 970.149 42.069 970.095 42.1213C969.702 34.1604 968.401 28.3153 966.856 28.3153C965.257 28.3153 963.915 34.5377 963.577 42.8845C963.401 42.3476 963.224 42.0313 962.994 42.0313C962.533 42.0313 962.14 43.5521 961.991 45.6417H961.612C961.246 44.652 960.568 43.9497 959.742 43.9497C959.403 43.9497 959.091 44.089 958.807 44.3008C958.563 38.7489 957.682 34.6132 956.612 34.6132C955.636 34.6132 954.782 38.2584 954.498 43.2793C954.227 43.1719 953.983 43.05 953.698 43.05C953.183 43.05 952.722 43.2996 952.302 43.6449C951.828 43.137 951.259 42.8352 950.622 42.8265C950.459 42.3302 950.27 42.0313 950.066 42.0313C949.823 42.0313 949.606 42.4202 949.43 43.0558L949.416 43.0529C949.24 43.0529 949.077 43.1312 948.901 43.1515C948.725 42.4637 948.508 42.0342 948.251 42.0342C947.966 42.0342 947.709 42.6001 947.519 43.5085C947.492 43.5201 947.465 43.5375 947.438 43.5492C947.18 41.5756 946.747 40.2522 946.232 40.2522C945.69 40.2522 945.215 41.7614 944.971 43.9584C944.483 43.9613 944.063 44.2544 943.684 44.6694C943.494 43.1022 943.155 42.0313 942.762 42.0313C942.288 42.0313 941.895 43.5521 941.746 45.6417H940.418C940.405 45.6214 940.405 45.5923 940.391 45.572C940.066 44.71 939.47 44.118 938.779 44.0164C938.25 43.2821 937.559 42.8265 936.8 42.8265C936.516 42.8265 936.217 42.9136 935.946 43.0413C935.757 42.4144 935.553 42.0313 935.31 42.0313C935.147 42.0313 935.011 42.2112 934.876 42.5131C934.74 42.2112 934.591 42.0313 934.429 42.0313C934.131 42.0313 933.846 42.6698 933.643 43.6798C933.616 43.375 933.575 43.0877 933.521 42.8149C933.236 39.6515 932.667 37.4632 931.99 37.4632C931.502 37.4632 931.068 38.5718 930.756 40.3567C930.201 40.7456 929.781 42.5392 929.618 44.9509C929.483 45.1425 929.401 45.3834 929.32 45.6155C929.225 45.2528 929.09 44.9219 928.954 44.6143C928.751 43.0761 928.426 42.0313 928.033 42.0313C927.87 42.0313 927.735 42.2112 927.599 42.5131C927.464 42.2112 927.314 42.0313 927.152 42.0313C926.949 42.0313 926.759 42.3302 926.596 42.8265C926.569 42.8265 926.542 42.8352 926.542 42.8352C926.203 36.906 925.214 32.5816 924.049 32.5816C922.775 32.5816 921.745 37.5328 921.501 44.1354C921.284 42.8671 920.973 42.0313 920.62 42.0313C920.241 42.0313 919.902 43.0209 919.712 44.5011C919.225 44.2109 918.642 43.999 918.019 43.999C917.924 43.999 917.842 44.0396 917.761 44.0454C917.666 44.0251 917.571 43.9613 917.477 43.9584C917.219 41.7614 916.745 40.2522 916.203 40.2522C915.674 40.2522 915.227 41.6598 914.983 43.7349C914.78 42.693 914.509 42.0313 914.197 42.0313C914.102 42.0313 914.035 42.0951 913.94 42.188C913.642 41.8659 913.303 41.6714 912.937 41.6714C912.883 41.6714 912.829 41.7004 912.761 41.712C912.476 37.2455 911.88 34.1314 911.175 34.1314C910.918 34.1314 910.701 34.5 910.484 35.1704C910.01 30.6487 909.265 27.7407 908.452 27.7407C907.395 27.7407 906.487 32.3582 906.08 39.0072C905.985 38.9956 905.918 38.9491 905.823 38.9491C904.617 38.9491 903.546 40.3451 902.896 42.4695C902.76 42.4463 902.625 42.4086 902.489 42.4086C901.947 42.4086 901.446 42.6117 900.985 42.9397C900.809 42.368 900.619 42.0284 900.389 42.0284C900.213 42.0284 900.037 42.2751 899.888 42.6756C899.386 42.516 898.858 42.4086 898.302 42.4086C897.557 42.4086 896.852 42.574 896.215 42.8526C895.944 41.2767 895.551 40.2493 895.104 40.2493C894.576 40.2493 894.142 41.6366 893.884 43.6798C893.668 42.6698 893.41 42.0313 893.098 42.0313C892.814 42.0313 892.543 42.6146 892.34 43.5579C891.879 43.0964 891.323 42.8265 890.727 42.8265C890.199 42.8265 889.697 43.0616 889.277 43.4389C889.087 26.0719 887.665 12.5504 885.93 12.5504C884.182 12.5504 882.746 26.249 882.569 43.7871C882.569 43.7784 882.556 43.7726 882.529 43.7639C882.298 41.6743 881.824 40.2493 881.296 40.2493C880.889 40.2493 880.496 41.1345 880.252 42.5247C879.832 42.4144 879.399 42.3389 878.911 42.3389C878.084 42.3389 877.325 42.5421 876.634 42.87C876.512 42.8903 876.377 42.9049 876.268 42.9455C876.092 42.8062 875.929 42.693 875.713 42.6001C875.577 42.2461 875.428 42.0284 875.238 42.0284C875.103 42.0284 874.995 42.159 874.886 42.365C874.805 42.3592 874.751 42.336 874.669 42.336C874.52 42.336 874.385 42.3738 874.263 42.397C874.222 42.2403 874.154 42.1067 874.1 41.9587C873.883 41.091 873.639 40.5163 873.355 40.3364C872.759 39.3903 872.04 38.8243 871.282 38.8243C870.048 38.8243 868.978 40.229 868.314 42.368C868.192 42.159 868.084 42.0255 867.962 42.0255C867.799 42.0255 867.663 42.1938 867.528 42.4782C867.257 37.4864 866.647 33.9283 865.875 33.9283C865.143 33.9283 864.533 37.0888 864.262 41.6221C864.194 41.6134 864.14 41.5814 864.072 41.5814C863.286 41.5814 862.609 42.4347 862.162 43.7436C861.945 42.6959 861.674 42.0226 861.362 42.0226C860.996 42.0226 860.671 42.9368 860.481 44.327C860.021 44.0977 859.506 43.9381 858.95 43.9381C858.76 43.9381 858.611 44.0106 858.435 44.0367C858.327 44.0135 858.232 43.941 858.137 43.941C857.893 43.941 857.663 44.0396 857.433 44.1499C857.202 41.8426 856.714 40.2406 856.159 40.2406C855.617 40.2406 855.142 41.7585 854.898 43.9671C854.695 42.7917 854.424 42.0226 854.072 42.0226C853.787 42.0226 853.53 42.5885 853.313 43.4998V43.4882C853.232 43.3924 853.137 43.3344 853.029 43.2676C852.825 43.1138 852.608 42.9832 852.364 42.9107C852.148 39.6079 851.701 37.3152 851.158 37.3152C850.589 37.3152 850.101 40.0346 849.925 43.8307C849.776 44.0077 849.641 44.1993 849.532 44.414C849.099 42.3767 848.177 40.9691 847.12 40.9691C846.199 40.9691 845.386 42.04 844.898 43.6739C844.789 43.6565 844.695 43.584 844.6 43.584C844.139 43.584 843.733 43.8104 843.353 44.1238C843.326 44.1151 843.299 44.118 843.285 44.1093C842.865 43.88 842.405 43.7407 841.89 43.6769C841.7 42.6669 841.429 42.0255 841.117 42.0255C840.968 42.0255 840.819 42.188 840.684 42.4637C840.087 41.8513 839.342 41.4915 838.57 41.4915C837.377 41.4915 836.347 42.3244 835.629 43.6072C835.29 43.6159 834.938 43.703 834.626 43.8017C834.626 43.7668 834.626 43.7291 834.613 43.6943C834.328 40.4322 833.664 38.1452 832.905 38.1452C832.147 38.1452 831.496 40.319 831.212 43.4302C831.157 43.4244 831.09 43.375 831.035 43.375C830.168 43.375 829.436 44.0629 828.976 45.0525C828.854 45.038 828.745 44.9916 828.65 44.9916C828.203 44.9916 827.81 45.1367 827.471 45.334C826.929 45.1367 826.333 44.9916 825.656 44.9916C825.371 44.9916 825.1 45.0525 824.816 45.096C824.463 44.594 823.989 44.2718 823.46 44.2718C823.406 44.2718 823.366 44.3095 823.325 44.3153C823.081 41.921 822.58 40.2493 822.01 40.2493C821.333 40.2493 820.764 42.5276 820.615 45.5836C820.56 45.5836 820.52 45.6068 820.466 45.6126C820.384 45.4327 820.303 45.2615 820.181 45.1164C819.856 44.1906 819.287 43.4737 818.623 43.1051C818.379 41.5089 817.986 40.4641 817.525 40.4641C817.078 40.4641 816.671 41.5611 816.427 43.2328C816.034 43.5056 815.669 43.9148 815.398 44.4111C814.883 43.5346 814.151 42.96 813.311 42.96C812.362 42.96 811.549 43.7204 811.034 44.8174C810.912 44.8 810.817 44.7478 810.695 44.7478C810.194 44.7478 809.774 44.9103 809.368 45.1309C808.758 44.9103 808.094 44.7478 807.375 44.7478C806.183 44.7478 805.14 45.0844 804.408 45.5981C803.676 45.0844 802.633 44.7478 801.44 44.7478C800.79 44.7478 800.207 44.8697 799.638 45.0409C799.15 43.7233 798.229 42.8265 797.117 42.8265C796.752 42.8265 796.386 42.9426 796.047 43.1399C795.857 43.079 795.695 42.9629 795.478 42.9629C794.922 42.9629 794.421 43.2734 793.987 43.6972C793.73 41.6424 793.296 40.2522 792.768 40.2522C792.469 40.2522 792.185 40.6934 791.955 41.445C791.738 40.8385 791.507 40.467 791.236 40.467C790.816 40.467 790.437 41.4276 790.179 42.9078C789.339 43.137 788.648 43.9003 788.201 44.9567C788.025 44.8784 787.862 44.8406 787.672 44.7971C787.469 42.1445 786.954 40.2522 786.331 40.2522C785.87 40.2522 785.464 41.3638 785.193 43.0616C784.908 42.9223 784.596 42.8265 784.298 42.8265C783.295 42.8265 782.415 43.5869 781.886 44.7449C781.683 43.137 781.344 42.0342 780.951 42.0342C780.951 42.0342 780.897 42.0603 780.883 42.0661C780.626 40.9488 780.301 40.2522 779.935 40.2522C779.366 40.2522 778.864 41.9152 778.634 44.3008C778.349 44.0948 778.038 43.9555 777.699 43.9555C776.872 43.9555 776.222 44.652 775.829 45.6475H775.544C775.395 43.5579 775.002 42.0371 774.528 42.0371C774.365 42.0371 774.23 42.217 774.094 42.5189C773.959 42.217 773.81 42.0371 773.661 42.0371C773.254 42.0371 772.888 43.1661 772.726 44.8058C772.346 44.295 771.859 43.9584 771.303 43.9584C771.14 43.9584 771.018 44.0483 770.869 44.0948C770.693 44.0483 770.571 43.9584 770.409 43.9584C769.894 43.9584 769.46 44.266 769.067 44.7159C768.891 43.1254 768.539 42.04 768.146 42.04C767.983 42.04 767.847 42.2199 767.712 42.5218C767.576 42.2199 767.427 42.04 767.278 42.04C766.858 42.04 766.506 43.169 766.33 44.8087C765.964 44.2979 765.476 43.9613 764.92 43.9613C764.744 43.9613 764.622 44.0512 764.473 44.0977C764.311 44.0512 764.189 43.9613 764.026 43.9613C763.349 43.9613 762.752 44.4489 762.359 45.1715C762.224 45.1106 762.075 45.0438 761.939 45.0438C761.912 45.0438 761.885 45.0699 761.831 45.0757C761.668 43.288 761.302 42.0429 760.882 42.0429C760.882 42.0429 760.842 42.0661 760.828 42.0719L760.76 42.0429C760.313 42.0429 759.92 43.4447 759.785 45.4095C759.649 45.424 759.527 45.4327 759.405 45.4559C759.026 44.5795 758.389 43.9642 757.63 43.9642C757.454 43.9642 757.332 44.0541 757.169 44.1006C757.02 44.0512 756.885 43.9642 756.736 43.9642C756.18 43.9642 755.692 44.3008 755.313 44.8145C755.137 43.1748 754.784 42.0429 754.378 42.0429C754.215 42.0429 754.08 42.2228 753.944 42.5247C753.809 42.2228 753.66 42.0429 753.497 42.0429C753.104 42.0429 752.752 43.1312 752.576 44.7188C752.21 44.2718 751.749 43.9613 751.234 43.9613C751.072 43.9613 750.949 44.0512 750.787 44.0977C750.638 44.0483 750.502 43.9613 750.353 43.9613C749.784 43.9613 749.31 44.2979 748.93 44.8116C748.754 43.1719 748.402 42.04 747.995 42.04C747.833 42.04 747.684 42.2199 747.548 42.5218C747.413 42.2199 747.264 42.04 747.115 42.04C746.667 42.04 746.275 43.4215 746.125 45.3601C746.071 45.3572 746.031 45.334 745.99 45.334C745.882 45.334 745.8 45.3747 745.705 45.3892C745.312 44.5475 744.689 43.9613 743.944 43.9613C743.619 43.9613 743.293 44.1006 743.022 44.3095C742.792 41.9239 742.29 40.2609 741.721 40.2609C741.355 40.2609 741.003 40.9575 740.759 42.0748C740.746 42.069 740.705 42.0429 740.705 42.0429C740.312 42.0429 739.946 43.1457 739.77 44.7565C739.242 43.6014 738.361 42.8381 737.358 42.8381C737.046 42.8381 736.735 42.9339 736.464 43.0732C736.193 41.3754 735.786 40.2638 735.312 40.2638C734.702 40.2638 734.187 42.159 733.97 44.8087C733.794 44.8523 733.604 44.89 733.442 44.9684C732.927 43.6943 732.005 42.8381 730.935 42.8381C730.637 42.8381 730.325 42.9339 730.054 43.0732C729.783 41.3754 729.363 40.2638 728.902 40.2638C728.279 40.2638 727.764 42.159 727.561 44.8087C727.385 44.8523 727.195 44.89 727.032 44.9684C726.517 43.6943 725.596 42.8381 724.525 42.8381C723.536 42.8381 722.655 43.5927 722.127 44.742C722.005 44.7304 721.91 44.681 721.815 44.681C721.314 44.681 720.88 44.8465 720.446 45.0699C720.284 45.0119 720.162 44.9248 719.986 44.8813C719.701 44.5882 719.349 44.3792 718.969 44.3792C718.929 44.3792 718.888 44.414 718.834 44.4198C718.617 42.098 718.143 40.4786 717.587 40.4786C716.977 40.4786 716.449 42.4231 716.273 45.0989C716.11 45.157 715.975 45.215 715.839 45.2847C715.351 43.9293 714.43 42.9745 713.346 42.9745C712.397 42.9745 711.584 43.7349 711.069 44.8319C710.947 44.8145 710.825 44.7623 710.703 44.7623C710.215 44.7623 709.782 44.9219 709.389 45.1396C708.793 44.9219 708.129 44.7623 707.397 44.7623C706.204 44.7623 705.161 45.0989 704.429 45.6097C703.698 45.0989 702.654 44.7623 701.475 44.7623C700.73 44.7623 700.066 44.9248 699.47 45.1425C699.077 44.9219 698.643 44.7623 698.142 44.7623C698.006 44.7623 697.911 44.8145 697.803 44.8319C697.288 43.7349 696.475 42.9745 695.526 42.9745C694.334 42.9745 693.318 44.0861 692.911 45.6562H692.64C692.491 42.693 691.949 40.4786 691.298 40.4786C690.729 40.4786 690.255 42.1009 690.025 44.4198C689.984 44.4169 689.943 44.3821 689.889 44.3821C689.239 44.3821 688.697 44.8929 688.358 45.6301C688.277 45.6213 688.209 45.5836 688.114 45.5836C688.006 45.5836 687.951 45.6417 687.857 45.6562H686.271C686.122 45.6417 686.014 45.5836 685.878 45.5836C685.783 45.5836 685.702 45.6126 685.607 45.6155C684.957 45.2499 684.13 45.009 683.181 45.009C682.504 45.009 681.908 45.1541 681.366 45.3514C681.027 45.1541 680.634 45.009 680.187 45.009C680.065 45.009 679.97 45.0554 679.861 45.0699C679.401 44.0832 678.669 43.3924 677.802 43.3924C677.748 43.3924 677.68 43.4418 677.626 43.4476C677.341 40.3335 676.691 38.1626 675.932 38.1626C675.024 38.1626 674.279 41.3986 674.116 45.6562H673.899C673.452 43.2647 671.988 41.5118 670.254 41.5118C668.953 41.5118 667.801 42.4927 667.124 43.9903C666.988 43.9729 666.853 43.909 666.717 43.909C666.067 43.909 665.484 44.1238 664.955 44.4169C664.657 44.3037 664.346 44.1993 664.007 44.1267C663.804 30.4949 662.313 19.9018 660.47 19.9018C658.79 19.9018 657.381 28.8203 657.001 40.8124C656.595 37.9478 655.89 36.0672 655.131 36.0672C653.979 36.0672 653.031 40.2406 652.868 45.6562H652.692C652.218 42.5218 650.375 40.1855 648.139 40.1855C646.553 40.1855 645.131 41.3928 644.29 43.2328C644.128 43.2125 643.979 43.1341 643.789 43.1341C642.976 43.1341 642.271 43.3982 641.621 43.7581C640.632 43.3982 639.548 43.1341 638.328 43.1341C637.61 43.1341 636.959 43.256 636.322 43.3866C636.024 24.6556 633.531 10.0487 630.523 10.0487C627.514 10.0487 625.035 24.6847 624.736 43.4476C624.221 43.2531 623.679 43.1341 623.083 43.1341C622.907 43.1341 622.758 43.2096 622.582 43.2328C621.728 41.3957 620.319 40.1855 618.747 40.1855C617.527 40.1855 616.457 40.8907 615.644 42.011C615.048 41.8252 614.411 41.6743 613.747 41.5727C613.34 38.2903 612.608 36.0701 611.768 36.0701C610.928 36.0701 610.21 38.2526 609.803 41.4886C608.706 41.6105 607.703 41.8572 606.768 42.1967C605.874 41.6917 604.803 41.3841 603.665 41.3841C603.394 41.3841 603.15 41.4276 602.892 41.4566C601.673 38.8795 599.694 37.1817 597.445 37.1817C597.282 37.1817 597.147 37.2368 596.998 37.2513C596.225 29.1686 594.545 23.5528 592.607 23.5528C590.046 23.5528 587.946 33.313 587.77 45.6562H587.648C587.404 42.3273 586.482 39.3206 585.046 37.0075C584.572 22.5428 583.122 12.0135 581.455 12.0135C579.951 12.0135 578.65 20.3226 578.054 32.3001C577.972 32.2972 577.904 32.2653 577.837 32.2653C574.476 32.2653 571.536 34.7902 569.733 38.627C569.354 38.5834 568.974 38.5167 568.595 38.5167C566.915 38.5167 565.356 38.9752 564.001 39.7211C561.942 38.9752 559.584 38.5167 557.023 38.5167C552.429 38.5167 548.391 39.9156 545.843 42.0458C544.515 41.6018 543.011 41.329 541.398 41.329C539.745 41.329 538.2 41.6192 536.832 42.0893C536.574 40.9662 536.249 40.2667 535.883 40.2667C535.585 40.2667 535.3 40.7369 535.057 41.5263C534.569 41.4102 534.067 41.3319 533.552 41.3319C533.281 41.3319 533.038 41.3754 532.78 41.4044C531.56 38.8011 529.568 37.0888 527.292 37.0888C527.129 37.0888 526.994 37.1439 526.831 37.1584C526.045 29.0003 524.351 23.338 522.386 23.338C520.828 23.338 519.432 26.8991 518.538 32.4307C518.159 31.621 517.711 31.1711 517.264 31.1711C515.936 31.1711 514.798 34.9905 514.283 40.4728C514.161 40.4612 514.066 40.4235 513.958 40.4235C513.809 40.4235 513.66 40.4699 513.511 40.4931C513.389 40.3596 513.28 40.2667 513.172 40.2667C512.982 40.2667 512.806 40.4496 512.657 40.7514C511.668 41.2071 510.828 42.1242 510.245 43.3692C510.069 43.3489 509.933 43.2764 509.757 43.2764C508.971 43.2764 508.293 43.5317 507.67 43.88C506.735 43.5376 505.705 43.2909 504.554 43.2822C504.364 42.5218 504.133 42.0458 503.876 42.0458C503.591 42.0458 503.347 42.5827 503.144 43.4418C502.819 43.4882 502.44 43.4911 502.128 43.5695C501.925 42.6262 501.667 42.0458 501.369 42.0458C501.017 42.0458 500.705 42.8903 500.515 44.176C500.285 44.0658 500.068 43.9671 499.824 43.9671C499.526 43.9671 499.242 44.0629 498.971 44.2312C498.699 44.0629 498.415 43.9671 498.117 43.9671C498.076 43.9671 498.036 44.0019 497.995 44.0048C497.588 35.6319 495.583 29.2789 493.184 29.2789C490.623 29.2789 488.523 36.4793 488.306 45.6591H487.845C487.506 44.8552 486.924 44.2921 486.233 44.2921C486.178 44.2921 486.138 44.3299 486.084 44.3357C485.853 41.9413 485.365 40.2696 484.783 40.2696C484.308 40.2696 483.902 41.4044 483.631 43.1283C483.319 42.9542 482.98 42.8439 482.642 42.8439C482.344 42.8439 482.059 42.931 481.788 43.0587C481.625 42.5073 481.449 42.1677 481.246 42.0922C480.717 38.0639 479.606 35.2633 478.292 35.2633C476.855 35.2633 475.636 38.7227 475.202 43.494C475.175 43.4882 475.148 43.4853 475.121 43.4795C474.918 43.2996 474.714 43.1632 474.484 43.0558C474.294 42.4289 474.091 42.0487 473.847 42.0487C473.63 42.0487 473.441 42.3651 473.278 42.8962C472.614 43.0181 472.018 43.4476 471.571 44.1151C471.218 43.9497 470.88 43.7697 470.487 43.6536C470.229 41.6308 469.782 40.2667 469.253 40.2667C468.766 40.2667 468.332 41.4741 468.074 43.3083C467.98 43.3054 467.912 43.2764 467.817 43.2764C467.573 43.2764 467.383 43.346 467.153 43.3605C466.963 42.5537 466.719 42.0487 466.448 42.0487C466.164 42.0487 465.893 42.6233 465.689 43.5463C465.025 43.6943 464.443 43.9206 463.914 44.1906C463.711 44.0861 463.521 44.0193 463.291 44.0048C463.047 41.7933 462.573 40.2696 462.031 40.2696C461.34 40.2696 460.784 42.574 460.635 45.662H460.364C460.269 45.3427 460.174 45.0206 460.052 44.742C459.944 43.1254 459.592 42.0313 459.199 42.0313C458.955 42.0313 458.751 42.4115 458.575 43.0413C458.399 42.9658 458.25 42.9107 458.06 42.8787C457.898 42.3476 457.708 42.0313 457.478 42.0313C457.247 42.0313 457.044 42.4115 456.854 43.0384C456.434 43.2357 456.041 43.5666 455.73 44.0135C455.499 44.0454 455.282 44.0832 455.079 44.2109C454.808 44.0425 454.537 43.9497 454.225 43.9497C453.765 43.9497 453.358 44.2167 452.992 44.5882C452.396 44.3821 451.746 44.2486 451.041 44.2109C450.838 42.8962 450.526 42.0313 450.187 42.0313C449.849 42.0313 449.55 42.8091 449.347 44.0019C448.954 44.0483 448.602 44.2573 448.29 44.5765C448.25 44.5911 448.209 44.6114 448.182 44.6259C447.87 44.2805 447.491 44.0512 447.071 44.0019C446.867 42.8091 446.583 42.0313 446.23 42.0313C445.878 42.0313 445.566 42.9078 445.377 44.2399C445.228 44.2573 445.092 44.2863 444.943 44.3241C444.618 40.6295 443.656 37.9508 442.517 37.9508C441.447 37.9508 440.539 40.496 440.173 44.0512C440.038 44.0832 439.916 44.1035 439.821 44.1615C439.618 42.8787 439.306 42.0313 438.967 42.0313C438.615 42.0313 438.303 42.87 438.113 44.147C437.91 42.87 437.612 42.0313 437.26 42.0313C436.799 42.0313 436.406 43.5521 436.271 45.6417H435.092C434.983 45.3805 434.888 45.1135 434.753 44.9016C434.455 38.328 432.896 33.313 431.026 33.313C429.603 33.313 428.37 36.253 427.733 40.5424C427.598 40.3712 427.462 40.2493 427.34 40.2493C427.313 40.2493 427.286 40.2812 427.273 40.287C427.246 40.2812 427.218 40.2493 427.191 40.2493C426.609 40.2493 426.134 41.9007 425.891 44.2747C425.606 44.2747 425.348 44.3647 425.105 44.5185C424.563 43.494 423.736 42.8265 422.814 42.8265C422.218 42.8265 421.663 43.0993 421.202 43.5637C420.741 43.0993 420.186 42.8265 419.589 42.8265C419.481 42.8265 419.386 42.8555 419.305 42.8729C419.034 41.2883 418.627 40.2522 418.18 40.2522C417.719 40.2522 417.313 41.3638 417.042 43.0558C416.798 42.7714 416.54 42.5247 416.242 42.3447C415.971 41.0532 415.619 40.2522 415.226 40.2522C414.982 40.2522 414.779 40.5541 414.576 41.0387C414.128 37.3181 413.302 34.7873 412.353 34.7873C412.014 34.7873 411.676 35.1356 411.377 35.7625C410.673 31.4759 409.602 28.7159 408.396 28.7159C406.879 28.7159 405.564 33.104 404.954 39.4222C404.832 39.4106 404.71 39.367 404.602 39.367C402.84 39.367 401.296 40.6934 400.347 42.7104C400.144 42.6872 399.954 42.6524 399.751 42.6524C398.87 42.6524 398.043 42.8933 397.325 43.2851C397.149 43.2183 396.973 43.1516 396.77 43.0964C396.593 42.4376 396.39 42.0313 396.133 42.0313C395.984 42.0313 395.848 42.1764 395.726 42.4376C395.604 42.1793 395.455 42.0313 395.32 42.0313C395.13 42.0313 394.954 42.2954 394.805 42.7249C394.425 42.6872 394.046 42.6524 393.666 42.6524C391.796 42.6524 390.116 43.0993 388.842 43.8133C388.639 42.7278 388.355 42.0313 388.029 42.0313C387.677 42.0313 387.365 42.8787 387.176 44.1673C386.959 44.0483 386.728 43.9526 386.471 43.9526C385.644 43.9526 384.98 44.6462 384.614 45.6446H384.221C384.154 44.5562 384.005 43.6246 383.829 42.9832C383.544 19.4287 381.064 0.979248 378.029 0.979248C374.993 0.979248 372.514 19.3794 372.242 42.8845C372.107 42.8613 371.985 42.8265 371.863 42.8265C370.942 42.8265 370.115 43.4969 369.587 44.5272C369.437 44.5185 369.315 44.475 369.18 44.475C368.475 44.475 367.825 44.5969 367.242 44.7768C366.958 44.5388 366.66 44.3676 366.321 44.3676C366.226 44.3676 366.158 44.4198 366.09 44.4343C365.914 44.3618 365.752 44.2747 365.562 44.2747C365.508 44.2747 365.467 44.3124 365.413 44.3182C365.182 41.9239 364.695 40.2522 364.112 40.2522C363.692 40.2522 363.312 41.1577 363.055 42.5682C362.892 42.5276 362.743 42.4927 362.554 42.4927C362.486 42.4927 362.405 42.516 362.337 42.5247C361.971 38.714 361.185 36.0556 360.264 36.0556C359.261 36.0556 358.421 39.2161 358.109 43.5927C357.892 43.8075 357.729 44.0716 357.553 44.3589C356.822 41.8949 355.195 40.1739 353.285 40.1739C351.699 40.1739 350.29 41.3812 349.45 43.2212C349.274 43.2009 349.125 43.1225 348.948 43.1225C348.135 43.1225 347.417 43.3866 346.767 43.7494C345.791 43.3866 344.707 43.1225 343.474 43.1225C341.509 43.1225 339.802 43.6768 338.596 44.5243C337.39 43.6768 335.682 43.1225 333.717 43.1225C332.498 43.1225 331.414 43.3866 330.438 43.7494C329.788 43.3866 329.056 43.1225 328.256 43.1225C328.067 43.1225 327.931 43.198 327.755 43.2212C326.901 41.3841 325.505 40.1739 323.906 40.1739C321.684 40.1739 319.841 42.516 319.353 45.6446H319.177C319.028 40.229 318.08 36.0556 316.928 36.0556C316.006 36.0556 315.22 38.714 314.854 42.5247C314.787 42.516 314.705 42.4927 314.638 42.4927C313.554 42.4927 312.619 43.3054 312.049 44.5446C311.927 44.5301 311.819 44.4779 311.697 44.4779C311.155 44.4779 310.681 44.6578 310.247 44.8987C309.583 44.6578 308.865 44.4779 308.038 44.4779C307.876 44.4779 307.754 44.5243 307.605 44.5359C306.534 43.9264 305.138 43.5317 303.594 43.5317C302.482 43.5317 301.507 43.7697 300.612 44.0948C300.03 43.7668 299.393 43.5317 298.661 43.5317C298.485 43.5317 298.349 43.5985 298.2 43.6188C297.428 41.9587 296.168 40.8675 294.718 40.8675C294.609 40.8675 294.515 40.9023 294.433 40.9139C293.945 35.8002 292.888 32.2363 291.642 32.2363C290.056 32.2363 288.769 38.1162 288.606 45.6446H288.457C287.956 41.1664 285.381 37.7563 282.278 37.7563C280.164 37.7563 278.294 39.3525 277.156 41.7846C276.912 41.7556 276.695 41.7149 276.438 41.7149C275.367 41.7149 274.391 42.0052 273.524 42.4753C272.25 42.0197 270.814 41.7411 269.256 41.7237C269.012 40.8153 268.727 40.2522 268.402 40.2522C268.063 40.2522 267.751 40.853 267.508 41.8165C265.692 42.0255 264.079 42.5682 262.833 43.3518C262.548 23.5731 260.055 8.12163 257.033 8.12163C253.916 8.12163 251.355 24.7862 251.219 45.6446H250.298C250.162 43.555 249.769 42.0342 249.309 42.0342C248.834 42.0342 248.441 43.555 248.292 45.6446H247.927C247.561 44.6549 246.883 43.9526 246.043 43.9526C245.853 43.9526 245.704 44.0483 245.528 44.1122C245 43.3199 244.268 42.8265 243.468 42.8265C242.926 42.8265 242.425 43.0674 241.991 43.4621C241.449 43.1138 240.826 42.8265 240.162 42.5798C239.891 41.1606 239.539 40.2522 239.105 40.2522C238.753 40.2522 238.414 40.9401 238.17 42.0371C237.37 41.8949 236.571 41.7962 235.717 41.7962C234.118 41.7962 232.641 42.0835 231.367 42.545C230.514 42.0806 229.552 41.7962 228.508 41.7962C228.251 41.7962 228.02 41.8368 227.79 41.863C226.665 39.4686 224.822 37.8927 222.735 37.8927C222.586 37.8927 222.451 37.945 222.315 37.9566C221.597 30.4572 220.039 25.2506 218.237 25.2506C216.8 25.2506 215.526 28.5272 214.7 33.6206C214.334 32.8718 213.927 32.4568 213.507 32.4568C212.301 32.4568 211.258 35.9685 210.77 41.0039C210.675 40.9952 210.58 40.9604 210.485 40.9604C209.361 40.9604 208.358 41.6337 207.613 42.7162C207.45 42.2954 207.287 42.0342 207.084 42.0342C206.786 42.0342 206.515 42.6524 206.312 43.6362C205.715 43.6798 205.173 43.8626 204.672 44.1412C203.805 43.8191 202.829 43.584 201.745 43.584C201.325 43.584 200.959 43.6798 200.58 43.732C200.376 42.6959 200.105 42.0342 199.78 42.0342V42.04L199.767 42.0342C199.428 42.0342 199.116 42.8526 198.913 44.0948C198.493 44.2428 198.059 44.3908 197.72 44.5911C197.382 44.2196 196.962 43.9526 196.501 43.9526C196.23 43.9526 195.999 44.0512 195.769 44.1789C195.376 36.517 193.533 30.7097 191.338 30.7097C189.387 30.7097 187.733 35.301 187.097 41.6801C186.826 42.6466 186.663 44.0367 186.568 45.6417H186.324C185.891 43.9932 184.834 42.8236 183.6 42.8236C182.611 42.8236 181.717 43.5782 181.188 44.7275C181.08 44.7159 180.972 44.6665 180.877 44.6665C180.755 44.6665 180.66 44.7159 180.551 44.7275C180.253 39.8488 179.061 36.2065 177.638 36.2065C176.296 36.2065 175.185 39.3903 174.792 43.7726C174.454 43.6827 174.115 43.5753 173.749 43.5753C173.478 43.5753 173.261 43.671 173.017 43.7175C172.814 42.6872 172.543 42.0255 172.218 42.0255C171.865 42.0255 171.527 42.9281 171.35 44.295C170.402 43.8742 169.291 43.5724 168.03 43.5724C167.488 43.5724 167.001 43.6798 166.499 43.7668C165.998 43.1806 165.388 42.8178 164.71 42.8178C163.803 42.8178 162.989 43.4592 162.447 44.443C162.258 44.356 162.082 44.2689 161.865 44.2689C161.811 44.2689 161.783 44.3066 161.729 44.3124C161.499 41.9181 160.997 40.2464 160.428 40.2464C160.401 40.2464 160.388 40.2638 160.374 40.2696L160.334 40.2464C159.751 40.2464 159.263 41.9152 159.033 44.3124C158.978 44.3066 158.938 44.2689 158.884 44.2689C158.667 44.2689 158.491 44.356 158.301 44.443C157.772 43.4592 156.946 42.8178 156.051 42.8178C155.116 42.8178 154.29 43.4882 153.761 44.5156C152.637 43.5346 150.956 42.8265 148.991 42.5943C148.842 42.2403 148.693 42.0226 148.517 42.0226C148.355 42.0226 148.205 42.2141 148.07 42.5334C147.894 42.5276 147.745 42.5015 147.569 42.5015C145.902 42.5015 144.384 42.8468 143.124 43.4186C142.717 43.137 142.27 42.9223 141.769 42.7656C141.606 42.3012 141.43 42.0197 141.227 42.0197C141.051 42.0197 140.915 42.2228 140.766 42.5566C140.576 42.5363 140.387 42.5015 140.183 42.5015C139.723 42.5015 139.275 42.5827 138.842 42.6959C138.313 37.0656 136.877 32.9879 135.169 32.9879C133.34 32.9879 131.809 37.6896 131.416 43.9903C130.657 44.0687 130.047 44.7246 129.695 45.633H129.315C129.18 43.5434 128.773 42.0226 128.313 42.0226C127.838 42.0226 127.445 43.5434 127.31 45.633H126.131C125.765 44.6433 125.074 43.941 124.261 43.941C123.895 43.941 123.556 44.1151 123.272 44.3589C122.892 33.9312 120.453 25.8891 117.499 25.8891C114.518 25.8891 112.065 34.1575 111.726 44.8C111.415 44.4895 111.049 44.266 110.656 44.266C110.602 44.266 110.561 44.3037 110.507 44.3095C110.276 41.9152 109.789 40.2435 109.206 40.2435C108.718 40.2435 108.298 41.4247 108.027 43.2183C106.875 42.7743 105.534 42.5044 104.084 42.5044C102.688 42.5044 101.414 42.7539 100.303 43.1574C99.5577 42.7539 98.7311 42.5044 97.8096 42.5044C97.5928 42.5044 97.4031 42.5392 97.1863 42.5653C96.2106 40.4873 94.6252 39.1204 92.8094 39.1204C92.6739 39.1204 92.5519 39.1639 92.4435 39.1784C91.8201 32.6658 90.4651 28.1412 88.8932 28.1412C88.3511 28.1412 87.8362 28.6752 87.3755 29.6446C86.305 23.071 84.6653 18.8425 82.8088 18.8425C80.4781 18.8425 78.4725 25.564 77.5375 35.243C77.3478 35.2256 77.1852 35.1588 76.9819 35.1588C74.2853 35.1588 71.9139 37.1904 70.4639 40.2841C70.1794 40.2464 69.8677 40.1971 69.556 40.1971C68.2009 40.1971 66.9542 40.5657 65.8566 41.1664C64.2034 40.5657 62.2927 40.1971 60.2466 40.1971C55.7612 40.1971 51.9128 41.8455 50.0834 44.2196C48.5386 44.6172 47.319 45.1019 46.4653 45.6359H0.216064V48.8573H46.4653C47.319 49.3971 48.525 49.8789 50.0834 50.2765C51.9128 52.6476 55.7612 54.299 60.2466 54.299C62.2927 54.299 64.2034 53.9304 65.8566 53.3297C66.9542 53.9304 68.2145 54.299 69.556 54.299C69.8677 54.299 70.1794 54.2468 70.4639 54.2119C71.9139 57.3028 74.2853 59.3402 76.9819 59.3402C77.1852 59.3402 77.3478 59.2734 77.5375 59.256C78.459 68.9379 80.4781 75.6536 82.8088 75.6536C84.6653 75.6536 86.305 71.4251 87.3755 64.8544C87.8362 65.8238 88.3511 66.3578 88.8932 66.3578C90.4651 66.3578 91.8201 61.8332 92.4435 55.3206C92.5654 55.3322 92.6874 55.3786 92.8094 55.3786C94.6252 55.3786 96.2106 54.0117 97.1863 51.9308C97.4031 51.9569 97.5928 51.9917 97.8096 51.9917C98.7176 51.9917 99.5577 51.7451 100.303 51.3416C101.414 51.7451 102.702 51.9917 104.084 51.9917C105.534 51.9917 106.875 51.7218 108.041 51.2807C108.298 53.0772 108.718 54.2555 109.206 54.2555C109.789 54.2555 110.276 52.5838 110.507 50.1866C110.561 50.1924 110.602 50.2301 110.656 50.2301C111.049 50.2301 111.415 50.0066 111.726 49.6961C112.052 60.3386 114.518 68.6041 117.499 68.6041C120.453 68.6041 122.865 60.562 123.272 50.1401C123.556 50.381 123.895 50.5551 124.261 50.5551C125.074 50.5551 125.752 49.8586 126.145 48.8631H127.31C127.445 50.9557 127.838 52.4735 128.313 52.4735C128.773 52.4735 129.18 50.9557 129.315 48.8631H129.695C130.047 49.7744 130.657 50.4274 131.416 50.5058C131.809 56.8036 133.354 61.5082 135.169 61.5082C136.89 61.5082 138.313 57.4276 138.842 51.7973C139.262 51.9134 139.709 51.9917 140.183 51.9917C140.387 51.9917 140.576 51.9569 140.766 51.9366C140.915 52.2675 141.051 52.4706 141.227 52.4706C141.43 52.4706 141.606 52.1862 141.769 51.7276C142.257 51.5709 142.704 51.3591 143.124 51.0746C144.384 51.6435 145.902 51.9888 147.569 51.9888C147.745 51.9888 147.894 51.9656 148.07 51.9569C148.205 52.2762 148.355 52.4677 148.517 52.4677C148.693 52.4677 148.842 52.253 148.991 51.9018C150.956 51.6696 152.637 50.9615 153.761 49.9805C154.29 51.0079 155.116 51.6754 156.051 51.6754C156.946 51.6754 157.772 51.034 158.301 50.0531C158.491 50.1372 158.667 50.2272 158.884 50.2272C158.938 50.2272 158.978 50.1895 159.033 50.1837C159.263 52.5809 159.751 54.2526 160.334 54.2526L160.374 54.2294C160.374 54.2294 160.401 54.2526 160.428 54.2526C160.997 54.2526 161.499 52.5809 161.729 50.1837C161.783 50.1895 161.811 50.2272 161.865 50.2272C162.082 50.2272 162.258 50.1401 162.447 50.0531C162.989 51.034 163.803 51.6754 164.71 51.6754C165.388 51.6754 165.998 51.3126 166.499 50.7293C167.001 50.8134 167.488 50.9208 168.03 50.9208C169.291 50.9208 170.402 50.619 171.35 50.1982C171.54 51.5709 171.865 52.4677 172.218 52.4677C172.529 52.4677 172.814 51.8089 173.017 50.7786C173.261 50.825 173.491 50.9208 173.749 50.9208C174.115 50.9208 174.454 50.8134 174.792 50.7235C175.185 55.1116 176.296 58.2896 177.638 58.2896C179.047 58.2896 180.24 54.6473 180.551 49.7686C180.673 49.7832 180.768 49.8296 180.877 49.8296C180.985 49.8296 181.093 49.7802 181.188 49.7686C181.717 50.9179 182.598 51.6725 183.6 51.6725C184.834 51.6725 185.891 50.5058 186.324 48.8544H186.568C186.663 50.4652 186.839 51.8524 187.097 52.8189C187.733 59.198 189.387 63.7893 191.338 63.7893C193.533 63.7893 195.376 57.9848 195.769 50.3201C195.999 50.4449 196.23 50.5435 196.501 50.5435C196.962 50.5435 197.368 50.2736 197.72 49.9021C198.059 50.1024 198.493 50.2533 198.913 50.3984C199.116 51.6464 199.414 52.4619 199.767 52.4619L199.78 52.4561V52.4619C200.092 52.4619 200.376 51.8031 200.58 50.767C200.959 50.8192 201.325 50.915 201.745 50.915C202.829 50.915 203.791 50.6799 204.672 50.3607C205.173 50.6364 205.715 50.8192 206.312 50.8628C206.515 51.8466 206.772 52.4648 207.084 52.4648C207.287 52.4648 207.436 52.2036 207.613 51.7857C208.358 52.8682 209.361 53.5415 210.485 53.5415C210.594 53.5415 210.689 53.5067 210.77 53.4951C211.258 58.5276 212.301 62.0422 213.507 62.0422C213.927 62.0422 214.334 61.6271 214.7 60.8813C215.526 65.9718 216.787 69.2484 218.237 69.2484C220.039 69.2484 221.597 64.0447 222.315 56.5424C222.451 56.557 222.6 56.6063 222.735 56.6063C224.822 56.6063 226.665 55.0333 227.79 52.636C228.02 52.6651 228.251 52.7028 228.508 52.7028C229.552 52.7028 230.514 52.4155 231.367 51.9511C232.655 52.4155 234.118 52.7028 235.717 52.7028C236.571 52.7028 237.37 52.6041 238.17 52.4619C238.427 53.5589 238.753 54.2468 239.105 54.2468C239.539 54.2468 239.918 53.3384 240.162 51.9163C240.839 51.6696 241.449 51.3794 241.991 51.0369C242.425 51.4287 242.926 51.6667 243.468 51.6667C244.281 51.6667 245 51.1791 245.528 50.3839C245.704 50.4478 245.853 50.5435 246.043 50.5435C246.883 50.5435 247.547 49.8441 247.927 48.8515H248.292C248.441 50.944 248.834 52.4619 249.309 52.4619C249.769 52.4619 250.162 50.944 250.298 48.8515H251.219C251.355 69.7128 253.902 86.3774 257.033 86.3774C260.055 86.3774 262.534 70.9259 262.833 51.1443C264.079 51.9308 265.692 52.4735 267.508 52.6825C267.765 53.646 268.063 54.2468 268.402 54.2468C268.727 54.2468 269.025 53.6866 269.256 52.7724C270.814 52.7579 272.264 52.4764 273.524 52.0179C274.378 52.4909 275.367 52.784 276.438 52.784C276.695 52.784 276.912 52.7434 277.156 52.7173C278.294 55.1465 280.164 56.7427 282.278 56.7427C285.381 56.7427 287.956 53.3268 288.457 48.8515H288.606C288.769 56.3799 290.043 62.2627 291.642 62.2627C292.888 62.2627 293.945 58.6959 294.433 53.5851C294.528 53.5967 294.623 53.6315 294.718 53.6315C296.154 53.6315 297.428 52.5403 298.2 50.8831C298.349 50.9005 298.485 50.9702 298.661 50.9702C299.393 50.9702 300.03 50.7293 300.612 50.4071C301.493 50.7293 302.482 50.9702 303.594 50.9702C305.138 50.9702 306.534 50.5755 307.605 49.9631C307.754 49.9747 307.889 50.0211 308.038 50.0211C308.878 50.0211 309.583 49.8441 310.247 49.6003C310.681 49.8441 311.155 50.0211 311.697 50.0211C311.833 50.0211 311.941 49.9689 312.049 49.9602C312.619 51.1965 313.554 52.0092 314.638 52.0092C314.705 52.0092 314.787 51.983 314.854 51.9772C315.22 55.7879 316.006 58.4463 316.928 58.4463C318.08 58.4463 319.028 54.2729 319.177 48.8544H319.353C319.841 51.9888 321.684 54.328 323.906 54.328C325.505 54.328 326.915 53.1178 327.755 51.2807C327.931 51.301 328.067 51.3765 328.256 51.3765C329.069 51.3765 329.788 51.1124 330.438 50.7496C331.414 51.1124 332.498 51.3765 333.717 51.3765C335.696 51.3765 337.39 50.8221 338.609 49.9776C339.815 50.8221 341.536 51.3765 343.474 51.3765C344.707 51.3765 345.791 51.1124 346.767 50.7467C347.417 51.1124 348.149 51.3765 348.948 51.3765C349.138 51.3765 349.274 51.301 349.45 51.2807C350.304 53.1178 351.699 54.328 353.285 54.328C355.209 54.328 356.835 52.607 357.553 50.143C357.729 50.4332 357.892 50.6915 358.109 50.9092C358.421 55.2858 359.261 58.4492 360.264 58.4492C361.185 58.4492 361.971 55.7908 362.337 51.9801C362.405 51.9859 362.486 52.0121 362.554 52.0121C362.743 52.0121 362.892 51.9743 363.055 51.9366C363.326 53.35 363.692 54.2555 364.112 54.2555C364.695 54.2555 365.182 52.5838 365.413 50.1866C365.467 50.1924 365.508 50.2301 365.562 50.2301C365.752 50.2301 365.914 50.143 366.09 50.0705C366.158 50.085 366.226 50.1372 366.321 50.1372C366.66 50.1372 366.958 49.9631 367.229 49.7251C367.825 49.9079 368.475 50.0269 369.18 50.0269C369.329 50.0269 369.451 49.9863 369.573 49.9747C370.115 51.0021 370.942 51.6754 371.863 51.6754C371.999 51.6754 372.121 51.6435 372.242 51.6174C372.514 75.1254 374.993 93.5227 378.029 93.5227C381.064 93.5227 383.544 75.0732 383.829 51.5187C384.018 50.8744 384.154 49.9428 384.221 48.8544H384.614C384.98 49.8557 385.644 50.5464 386.471 50.5464C386.728 50.5464 386.959 50.4478 387.176 50.3346C387.379 51.6203 387.677 52.4648 388.029 52.4648C388.341 52.4648 388.639 51.7683 388.842 50.6857C390.13 51.3997 391.81 51.8466 393.666 51.8466C394.046 51.8466 394.425 51.8118 394.805 51.7741C394.954 52.2036 395.13 52.4648 395.32 52.4648C395.469 52.4648 395.604 52.3226 395.726 52.0614C395.862 52.3226 395.997 52.4648 396.133 52.4648C396.39 52.4648 396.593 52.0614 396.783 51.3997C396.973 51.3416 397.149 51.2807 397.325 51.2139C398.043 51.6057 398.856 51.8495 399.751 51.8495C399.954 51.8495 400.144 51.8147 400.347 51.7886C401.296 53.8056 402.854 55.1349 404.602 55.1349C404.724 55.1349 404.846 55.0913 404.954 55.0768C405.564 61.3979 406.879 65.7831 408.396 65.7831C409.602 65.7831 410.673 63.0289 411.377 58.7365C411.676 59.3663 412.014 59.7117 412.353 59.7117C413.302 59.7117 414.128 57.1838 414.576 53.4603C414.779 53.9478 414.982 54.2468 415.226 54.2468C415.632 54.2468 415.985 53.4429 416.242 52.1485C416.527 51.9714 416.798 51.7247 417.042 51.4403C417.313 53.1352 417.719 54.2468 418.18 54.2468C418.627 54.2468 419.034 53.2136 419.305 51.6232C419.4 51.6406 419.494 51.6696 419.589 51.6696C420.186 51.6696 420.741 51.3968 421.202 50.9324C421.663 51.3968 422.218 51.6696 422.814 51.6696C423.736 51.6696 424.563 51.0021 425.105 49.9776C425.348 50.1343 425.606 50.2214 425.891 50.2214C426.134 52.5925 426.609 54.2497 427.191 54.2497C427.191 54.2497 427.246 54.2178 427.259 54.209C427.286 54.2178 427.313 54.2497 427.34 54.2497C427.476 54.2497 427.611 54.1307 427.733 53.9536C428.37 58.246 429.603 61.1802 431.026 61.1802C432.91 61.1802 434.455 56.1622 434.753 49.5945C434.902 49.3855 434.997 49.1185 435.092 48.8515H436.271C436.406 50.944 436.799 52.4619 437.26 52.4619C437.612 52.4619 437.924 51.6261 438.113 50.3462C438.317 51.6232 438.615 52.4619 438.967 52.4619C439.306 52.4619 439.631 51.6203 439.821 50.3346C439.929 50.3955 440.051 50.4158 440.173 50.4449C440.526 54.0001 441.447 56.5482 442.517 56.5482C443.656 56.5482 444.604 53.8666 444.943 50.1749C445.092 50.2156 445.228 50.2359 445.377 50.2591C445.58 51.5883 445.878 52.4648 446.23 52.4648C446.569 52.4648 446.867 51.687 447.071 50.4971C447.491 50.4449 447.87 50.2185 448.182 49.8731C448.209 49.8876 448.25 49.9079 448.29 49.9254C448.602 50.2417 448.954 50.4536 449.347 50.4971C449.55 51.687 449.835 52.4648 450.187 52.4648C450.54 52.4648 450.851 51.6028 451.041 50.2881C451.746 50.2475 452.396 50.1169 453.006 49.9079C453.345 50.2794 453.765 50.5464 454.225 50.5464C454.524 50.5464 454.808 50.4536 455.079 50.2881C455.282 50.4129 455.499 50.4507 455.73 50.4826C456.041 50.9266 456.434 51.2604 456.854 51.4577C457.044 52.0846 457.247 52.4648 457.478 52.4648C457.708 52.4648 457.898 52.1514 458.06 51.6203C458.25 51.5854 458.399 51.5361 458.575 51.4577C458.751 52.0846 458.955 52.4648 459.199 52.4648C459.592 52.4648 459.944 51.3736 460.107 49.7773C460.242 49.4929 460.337 49.1766 460.418 48.8544H460.689C460.838 51.9424 461.407 54.2497 462.085 54.2497C462.627 54.2497 463.101 52.726 463.345 50.5145C463.576 50.4971 463.765 50.4303 463.969 50.3288C464.511 50.5958 465.08 50.8221 465.744 50.9702C465.947 51.8931 466.204 52.4677 466.503 52.4677C466.774 52.4677 467.017 51.9627 467.207 51.1588C467.438 51.1733 467.627 51.243 467.871 51.243C467.966 51.243 468.034 51.2139 468.115 51.2081C468.386 53.0453 468.82 54.2526 469.308 54.2526C469.836 54.2526 470.283 52.8856 470.541 50.8628C470.934 50.7467 471.272 50.5638 471.625 50.4042C472.072 51.0688 472.668 51.5013 473.332 51.6232C473.495 52.1572 473.685 52.4677 473.901 52.4677C474.145 52.4677 474.348 52.0875 474.538 51.4606C474.769 51.3562 474.972 51.2169 475.175 51.0369C475.202 51.0311 475.229 51.0282 475.256 51.0195C475.677 55.7937 476.896 59.256 478.346 59.256C479.66 59.256 480.772 56.4496 481.3 52.4242C481.503 52.3516 481.68 52.0092 481.842 51.4548C482.113 51.5854 482.398 51.6696 482.696 51.6696C483.035 51.6696 483.373 51.5622 483.685 51.3852C483.956 53.1149 484.363 54.2468 484.837 54.2468C485.42 54.2468 485.907 52.5751 486.138 50.1779C486.192 50.1837 486.233 50.2214 486.287 50.2214C486.978 50.2214 487.561 49.6583 487.899 48.8515H488.36C488.591 58.0342 490.677 65.2346 493.239 65.2346C495.651 65.2346 497.643 58.8816 498.049 50.5087C498.09 50.5145 498.13 50.5464 498.171 50.5464C498.469 50.5464 498.767 50.4536 499.025 50.2823C499.296 50.4536 499.567 50.5464 499.878 50.5464C500.122 50.5464 500.339 50.4478 500.57 50.3404C500.773 51.6232 501.071 52.4648 501.423 52.4648C501.708 52.4648 501.979 51.8815 502.182 50.9411C502.494 51.0195 502.873 51.0253 503.212 51.0717C503.402 51.9308 503.632 52.4648 503.93 52.4648C504.188 52.4648 504.418 51.9917 504.608 51.2285C505.773 51.2227 506.789 50.9731 507.724 50.6335C508.348 50.9847 509.039 51.2401 509.811 51.2401C509.987 51.2401 510.123 51.1675 510.299 51.1443C510.882 52.3894 511.708 53.3065 512.698 53.7592C512.86 54.0639 513.036 54.2497 513.226 54.2497C513.348 54.2497 513.456 54.1568 513.565 54.0233C513.714 54.0465 513.863 54.0901 514.012 54.0901C514.134 54.0901 514.229 54.0494 514.337 54.0378C514.852 59.5201 515.99 63.3395 517.318 63.3395C517.766 63.3395 518.199 62.8925 518.592 62.0799C519.487 67.6116 520.882 71.1726 522.441 71.1726C524.419 71.1726 526.113 65.5103 526.885 57.3522C527.048 57.3667 527.184 57.4189 527.346 57.4189C529.623 57.4189 531.615 55.7095 532.834 53.1062C533.092 53.1352 533.336 53.1788 533.607 53.1788C534.122 53.1788 534.623 53.1004 535.111 52.9872C535.355 53.7737 535.626 54.2468 535.937 54.2468C536.303 54.2468 536.642 53.5444 536.886 52.4213C538.255 52.8885 539.799 53.1817 541.453 53.1817C543.065 53.1817 544.556 52.9059 545.897 52.4619C548.445 54.5921 552.483 55.9939 557.077 55.9939C559.624 55.9939 561.982 55.5354 564.055 54.7924C565.411 55.5354 566.969 55.9939 568.649 55.9939C569.029 55.9939 569.408 55.933 569.787 55.8865C571.59 59.7233 574.53 62.2453 577.891 62.2453C577.959 62.2453 578.027 62.2105 578.108 62.2105C578.704 74.188 580.005 82.4971 581.509 82.4971C583.176 82.4971 584.612 71.9649 585.1 57.5031C586.536 55.1871 587.471 52.1804 587.702 48.8515H587.824C588.013 61.1918 590.1 70.9578 592.661 70.9578C594.613 70.9578 596.293 65.3391 597.052 57.2564C597.201 57.2738 597.337 57.3231 597.499 57.3231C599.749 57.3231 601.741 55.6311 602.947 53.0511C603.204 53.083 603.448 53.1236 603.719 53.1236C604.857 53.1236 605.914 52.816 606.822 52.3139C607.744 52.6476 608.76 52.8972 609.858 53.0191C610.25 56.2551 610.982 58.4376 611.822 58.4376C612.663 58.4376 613.381 56.2145 613.801 52.935C614.465 52.8334 615.102 52.6825 615.698 52.4938C616.525 53.617 617.595 54.3193 618.801 54.3193C620.373 54.3193 621.796 53.112 622.636 51.2749C622.812 51.2952 622.961 51.3707 623.137 51.3707C623.734 51.3707 624.276 51.2517 624.791 51.0601C625.075 69.823 627.569 84.459 630.577 84.459C633.585 84.459 636.065 69.8521 636.377 51.1182C637.027 51.2517 637.678 51.3736 638.382 51.3736C639.602 51.3736 640.686 51.1095 641.675 50.7467C642.325 51.1095 643.044 51.3736 643.843 51.3736C644.033 51.3736 644.182 51.2981 644.345 51.2778C645.198 53.1149 646.608 54.3222 648.193 54.3222C650.429 54.3222 652.272 51.983 652.746 48.8515H652.922C653.085 54.27 654.033 58.4434 655.185 58.4434C655.944 58.4434 656.635 56.5628 657.055 53.6983C657.435 65.6874 658.844 74.6088 660.524 74.6088C662.367 74.6088 663.858 64.0157 664.061 50.381C664.4 50.3084 664.712 50.204 665.01 50.0908C665.538 50.3868 666.121 50.6016 666.771 50.6016C666.92 50.6016 667.056 50.5406 667.178 50.5232C667.869 52.0179 669.021 53.0017 670.308 53.0017C672.043 53.0017 673.493 51.2459 673.953 48.8515H674.17C674.333 53.1091 675.065 56.3451 675.986 56.3451C676.745 56.3451 677.395 54.1742 677.68 51.0601C677.734 51.0688 677.802 51.1153 677.856 51.1153C678.723 51.1153 679.455 50.4303 679.916 49.4407C680.038 49.4552 680.132 49.5045 680.241 49.5045C680.688 49.5045 681.081 49.3565 681.42 49.1592C681.962 49.3565 682.558 49.5045 683.236 49.5045C684.171 49.5045 685.011 49.2636 685.661 48.8951C685.756 48.898 685.837 48.927 685.932 48.927C686.081 48.927 686.19 48.8689 686.325 48.8544H687.911C688.006 48.8718 688.06 48.927 688.168 48.927C688.263 48.927 688.331 48.8922 688.412 48.8806C688.751 49.6177 689.293 50.1314 689.943 50.1314C689.998 50.1314 690.038 50.0937 690.079 50.0908C690.309 52.4155 690.783 54.032 691.353 54.032C692.003 54.032 692.545 51.8205 692.694 48.8515H692.965C693.372 50.4245 694.388 51.5361 695.581 51.5361C696.529 51.5361 697.342 50.7728 697.857 49.6787C697.979 49.6961 698.074 49.7454 698.196 49.7454C698.697 49.7454 699.117 49.5829 699.524 49.3623C700.134 49.5829 700.798 49.7454 701.529 49.7454C702.708 49.7454 703.752 49.4088 704.483 48.8951C705.215 49.4088 706.259 49.7454 707.451 49.7454C708.196 49.7454 708.86 49.5858 709.443 49.3652C709.822 49.5858 710.27 49.7454 710.757 49.7454C710.893 49.7454 711.015 49.6903 711.123 49.6758C711.638 50.7728 712.451 51.5361 713.4 51.5361C714.484 51.5361 715.392 50.5784 715.88 49.223C716.029 49.2927 716.164 49.3507 716.313 49.4059C716.503 52.0904 717.032 54.032 717.641 54.032C718.197 54.032 718.671 52.4126 718.888 50.0908C718.942 50.0937 718.983 50.1314 719.024 50.1314C719.403 50.1314 719.755 49.9196 720.04 49.6293C720.216 49.58 720.338 49.4958 720.501 49.4378C720.921 49.6642 721.354 49.8296 721.869 49.8296C721.978 49.8296 722.073 49.7802 722.181 49.7686C722.709 50.9179 723.59 51.6725 724.579 51.6725C725.636 51.6725 726.558 50.8163 727.086 49.5481C727.263 49.6235 727.439 49.6613 727.615 49.7077C727.818 52.3574 728.333 54.2497 728.956 54.2497C729.417 54.2497 729.837 53.1352 730.108 51.4403C730.393 51.5825 730.691 51.6725 730.989 51.6725C732.046 51.6725 732.967 50.8163 733.496 49.5481C733.686 49.6235 733.848 49.6613 734.024 49.7077C734.241 52.3574 734.756 54.2468 735.366 54.2468C735.84 54.2468 736.247 53.1352 736.518 51.4403C736.802 51.5825 737.1 51.6725 737.412 51.6725C738.401 51.6725 739.296 50.9121 739.824 49.757C740.014 51.3678 740.366 52.4677 740.759 52.4677C740.759 52.4677 740.8 52.4445 740.813 52.4387C741.071 53.5531 741.41 54.2497 741.776 54.2497C742.345 54.2497 742.846 52.5867 743.076 50.204C743.361 50.4071 743.673 50.5464 743.998 50.5464C744.743 50.5464 745.367 49.9631 745.76 49.1214C745.854 49.1331 745.936 49.1737 746.044 49.1737C746.085 49.1737 746.125 49.1505 746.18 49.1505C746.342 51.0892 746.722 52.4677 747.169 52.4677C747.331 52.4677 747.467 52.2907 747.602 51.9888C747.738 52.2907 747.887 52.4677 748.05 52.4677C748.456 52.4677 748.822 51.3387 748.985 49.7019C749.364 50.2127 749.838 50.5493 750.407 50.5493C750.57 50.5493 750.692 50.4623 750.841 50.4158C751.004 50.4623 751.126 50.5493 751.288 50.5493C751.803 50.5493 752.25 50.2417 752.63 49.7919C752.82 51.3852 753.158 52.4677 753.551 52.4677C753.727 52.4677 753.863 52.2907 753.998 51.9888C754.134 52.2907 754.283 52.4677 754.432 52.4677C754.839 52.4677 755.205 51.3387 755.367 49.7019C755.747 50.2127 756.234 50.5493 756.79 50.5493C756.953 50.5493 757.074 50.4623 757.224 50.4158C757.386 50.4623 757.508 50.5493 757.684 50.5493C758.443 50.5493 759.08 49.9341 759.459 49.0547C759.595 49.0837 759.717 49.0895 759.839 49.104C759.988 51.0688 760.367 52.4677 760.815 52.4677C760.815 52.4677 760.869 52.4445 760.882 52.4387C760.896 52.4445 760.937 52.4677 760.937 52.4677C761.357 52.4677 761.736 51.2197 761.885 49.4349C761.939 49.4407 761.966 49.4697 761.994 49.4697C762.143 49.4697 762.278 49.403 762.414 49.3391C762.807 50.0647 763.403 50.5493 764.08 50.5493C764.243 50.5493 764.365 50.4623 764.528 50.41C764.677 50.4623 764.812 50.5493 764.975 50.5493C765.53 50.5493 766.018 50.2127 766.384 49.6961C766.574 51.3387 766.912 52.4677 767.333 52.4677C767.495 52.4677 767.631 52.2907 767.766 51.9859C767.902 52.2907 768.051 52.4677 768.2 52.4677C768.593 52.4677 768.959 51.3823 769.121 49.7919C769.501 50.2388 769.948 50.5493 770.463 50.5493C770.625 50.5493 770.747 50.4623 770.924 50.41C771.073 50.4623 771.208 50.5493 771.357 50.5493C771.913 50.5493 772.401 50.2127 772.78 49.6961C772.956 51.3387 773.309 52.4677 773.715 52.4677C773.878 52.4677 774.013 52.2907 774.149 51.9859C774.284 52.2907 774.433 52.4677 774.582 52.4677C775.057 52.4677 775.45 50.944 775.599 48.8573H775.883C776.249 49.8528 776.94 50.5493 777.753 50.5493C778.092 50.5493 778.404 50.41 778.688 50.204C778.919 52.5867 779.42 54.2526 779.989 54.2526C780.355 54.2526 780.694 53.556 780.938 52.4416C780.951 52.4474 781.005 52.4706 781.005 52.4706C781.398 52.4706 781.751 51.3707 781.94 49.7599C782.469 50.915 783.35 51.6754 784.353 51.6754C784.651 51.6754 784.976 51.5854 785.247 51.4432C785.518 53.1381 785.924 54.2497 786.385 54.2497C787.008 54.2497 787.523 52.3574 787.727 49.7106C787.916 49.6642 788.093 49.6293 788.255 49.551C788.689 50.6045 789.393 51.3707 790.234 51.597C790.505 53.0772 790.871 54.0407 791.291 54.0407C791.562 54.0407 791.792 53.6663 792.009 53.0598C792.239 53.8143 792.51 54.2526 792.822 54.2526C793.35 54.2526 793.784 52.8624 794.041 50.8076C794.475 51.2314 794.976 51.5419 795.532 51.5419C795.749 51.5419 795.911 51.4287 796.115 51.362C796.44 51.5593 796.806 51.6725 797.172 51.6725C798.256 51.6725 799.191 50.7757 799.692 49.461C800.248 49.6322 800.844 49.7512 801.494 49.7512C802.687 49.7512 803.73 49.4175 804.462 48.9038C805.194 49.4175 806.237 49.7512 807.43 49.7512C808.161 49.7512 808.825 49.5916 809.422 49.371C809.815 49.5916 810.248 49.7512 810.75 49.7512C810.885 49.7512 810.98 49.699 811.088 49.6845C811.603 50.7786 812.416 51.5419 813.365 51.5419C814.219 51.5419 814.937 50.9673 815.452 50.0908C815.736 50.5871 816.089 50.9963 816.482 51.272C816.739 52.9379 817.132 54.0378 817.579 54.0378C818.04 54.0378 818.419 52.993 818.677 51.3968C819.341 51.0282 819.91 50.3114 820.235 49.3855C820.357 49.2404 820.439 49.0692 820.52 48.8864C820.574 48.8951 820.628 48.9154 820.669 48.9154C820.818 51.9772 821.387 54.2526 822.065 54.2526C822.634 54.2526 823.135 52.5838 823.379 50.1866C823.42 50.1924 823.46 50.2301 823.515 50.2301C824.043 50.2301 824.504 49.9108 824.87 49.4059C825.154 49.4494 825.412 49.5132 825.71 49.5132C826.387 49.5132 826.984 49.3652 827.526 49.1679C827.864 49.3652 828.257 49.5132 828.705 49.5132C828.813 49.5132 828.921 49.461 829.03 49.4494C829.491 50.4391 830.222 51.124 831.09 51.124C831.144 51.124 831.212 51.0775 831.266 51.0688C831.55 54.1829 832.201 56.3538 832.96 56.3538C833.746 56.3538 834.369 54.0639 834.667 50.7989C834.681 50.767 834.681 50.7322 834.681 50.6974C835.006 50.7931 835.344 50.8831 835.683 50.8918C836.401 52.1746 837.431 53.0075 838.624 53.0075C839.41 53.0075 840.142 52.6447 840.738 52.0324C840.873 52.311 841.022 52.4677 841.171 52.4677C841.47 52.4677 841.754 51.8263 841.944 50.8192C842.445 50.7583 842.906 50.6161 843.34 50.3897C843.353 50.381 843.38 50.381 843.407 50.3752C843.773 50.6857 844.193 50.9121 844.654 50.9121C844.762 50.9121 844.857 50.8454 844.952 50.825C845.44 52.459 846.253 53.5328 847.174 53.5328C848.231 53.5328 849.153 52.1223 849.587 50.085C849.708 50.2968 849.844 50.4942 849.979 50.6683C850.156 54.4615 850.644 57.1809 851.213 57.1809C851.755 57.1809 852.202 54.8853 852.419 51.5854C852.663 51.5129 852.879 51.3823 853.083 51.2285C853.191 51.1617 853.286 51.1037 853.367 51.0079V50.9963C853.584 51.9047 853.828 52.4706 854.126 52.4706C854.465 52.4706 854.763 51.7044 854.953 50.5319C855.197 52.7376 855.671 54.2526 856.213 54.2526C856.768 54.2526 857.256 52.6505 857.487 50.3433C857.717 50.4507 857.947 50.5493 858.191 50.5493C858.286 50.5493 858.395 50.4797 858.49 50.4536C858.666 50.4797 858.815 50.5522 859.004 50.5522C859.56 50.5522 860.075 50.3926 860.536 50.1662C860.739 51.5564 861.051 52.4677 861.416 52.4677C861.715 52.4677 861.999 51.8002 862.216 50.7467C862.65 52.0527 863.341 52.9089 864.127 52.9089C864.194 52.9089 864.249 52.8798 864.316 52.8682C864.601 57.4044 865.197 60.5649 865.929 60.5649C866.701 60.5649 867.325 57.0039 867.582 52.015C867.718 52.3023 867.867 52.4648 868.016 52.4648C868.151 52.4648 868.26 52.3342 868.368 52.1253C869.032 54.2642 870.103 55.6689 871.336 55.6689C872.108 55.6689 872.813 55.1087 873.409 54.1568C873.694 53.9769 873.938 53.4051 874.154 52.5432C874.209 52.3922 874.276 52.2529 874.317 52.0962C874.452 52.1252 874.588 52.1572 874.723 52.1572C874.805 52.1572 874.859 52.134 874.94 52.1282C875.062 52.3313 875.171 52.4619 875.293 52.4619C875.482 52.4619 875.631 52.2471 875.767 51.896C875.984 51.806 876.146 51.687 876.322 51.5506C876.444 51.5912 876.58 51.6087 876.688 51.6232C877.379 51.9511 878.138 52.1572 878.965 52.1572C879.439 52.1572 879.873 52.0817 880.306 51.9714C880.564 53.3616 880.943 54.2468 881.35 54.2468C881.878 54.2468 882.353 52.8276 882.583 50.7351C882.61 50.7264 882.624 50.7177 882.624 50.7119C882.8 68.2442 884.236 81.9457 885.984 81.9457C887.719 81.9457 889.142 68.4271 889.331 51.0572C889.751 51.4374 890.253 51.6696 890.781 51.6696C891.377 51.6696 891.933 51.3968 892.394 50.9382C892.597 51.8815 892.855 52.4619 893.153 52.4619C893.451 52.4619 893.722 51.8234 893.939 50.8163C894.196 52.8624 894.63 54.2468 895.158 54.2468C895.605 54.2468 896.012 53.2194 896.269 51.6435C896.906 51.9221 897.624 52.0846 898.356 52.0846C898.912 52.0846 899.44 51.9801 899.942 51.8176C900.091 52.221 900.267 52.4648 900.443 52.4648C900.673 52.4648 900.863 52.1281 901.039 51.5535C901.5 51.8844 902.001 52.0875 902.543 52.0875C902.693 52.0875 902.828 52.0527 902.95 52.0295C903.6 54.151 904.671 55.5499 905.877 55.5499C905.972 55.5499 906.04 55.5034 906.134 55.4918C906.541 62.1408 907.449 66.7612 908.506 66.7612C909.332 66.7612 910.064 63.8474 910.538 59.3286C910.755 59.9961 910.972 60.3647 911.23 60.3647C911.934 60.3647 912.544 57.2535 912.815 52.787C912.883 52.7957 912.937 52.8276 912.991 52.8276C913.357 52.8276 913.696 52.636 913.994 52.311C914.089 52.401 914.157 52.4648 914.251 52.4648C914.55 52.4648 914.834 51.8002 915.051 50.7641C915.295 52.8392 915.742 54.2468 916.271 54.2468C916.813 54.2468 917.287 52.7347 917.544 50.5435C917.639 50.5435 917.734 50.4768 917.829 50.4565C917.91 50.4623 917.991 50.5058 918.086 50.5058C918.71 50.5058 919.292 50.291 919.78 50.0008C919.983 51.478 920.309 52.4677 920.688 52.4677C921.04 52.4677 921.352 51.6348 921.542 50.3607C921.799 56.9604 922.829 61.9145 924.089 61.9145C925.255 61.9145 926.23 57.5902 926.583 51.6609C926.583 51.6609 926.61 51.6725 926.637 51.6725C926.8 52.1688 926.989 52.4648 927.193 52.4648C927.355 52.4648 927.504 52.2878 927.64 51.9859C927.775 52.2878 927.924 52.4648 928.073 52.4648C928.466 52.4648 928.805 51.4258 928.995 49.8847C929.144 49.5771 929.279 49.2433 929.361 48.8806C929.456 49.1098 929.537 49.3507 929.659 49.5452C929.821 51.9598 930.242 53.7534 930.797 54.1423C931.095 55.9272 931.542 57.0387 932.03 57.0387C932.708 57.0387 933.277 54.8504 933.561 51.687C933.616 51.4113 933.656 51.1269 933.683 50.8134C933.887 51.8263 934.158 52.4619 934.469 52.4619C934.632 52.4619 934.781 52.2849 934.917 51.983C935.052 52.2849 935.201 52.4619 935.35 52.4619C935.594 52.4619 935.797 52.0817 935.987 51.4519C936.258 51.5825 936.543 51.6667 936.841 51.6667C937.613 51.6667 938.291 51.2139 938.819 50.4797C939.51 50.3752 940.093 49.7919 940.432 48.9386C940.445 48.9125 940.445 48.8776 940.459 48.8515H941.787C941.936 50.944 942.329 52.4619 942.803 52.4619C943.196 52.4619 943.548 51.3968 943.725 49.8296C944.09 50.2475 944.524 50.5348 945.012 50.5406C945.256 52.7347 945.73 54.2439 946.272 54.2439C946.787 54.2439 947.221 52.9205 947.478 50.9469C947.505 50.9585 947.532 50.976 947.546 50.9876C947.749 51.896 947.993 52.4619 948.291 52.4619C948.549 52.4619 948.766 52.0382 948.942 51.3445C949.118 51.3678 949.281 51.4432 949.457 51.4432L949.47 51.4403C949.646 52.0759 949.863 52.4619 950.107 52.4619C950.31 52.4619 950.5 52.163 950.663 51.6696C951.3 51.6638 951.869 51.3591 952.343 50.8483C952.75 51.1965 953.21 51.4461 953.739 51.4461C954.023 51.4461 954.267 51.3242 954.538 51.2169C954.823 56.2377 955.677 59.8829 956.652 59.8829C957.723 59.8829 958.617 55.7443 958.847 50.1953C959.132 50.4042 959.444 50.5435 959.782 50.5435C960.609 50.5435 961.273 49.8441 961.653 48.8515H962.032C962.181 50.944 962.574 52.4619 963.035 52.4619C963.265 52.4619 963.441 52.1456 963.617 51.6116C963.956 59.9613 965.298 66.1807 966.897 66.1807C968.442 66.1807 969.742 60.3357 970.135 52.3719C970.19 52.4242 970.271 52.4619 970.325 52.4619C970.569 52.4619 970.772 52.0933 970.948 51.481C971.219 51.5912 971.477 51.6667 971.761 51.6667C972.263 51.6667 972.71 51.4693 973.117 51.1385C973.618 51.3213 974.133 51.4403 974.688 51.4403C975.515 51.4403 976.233 51.1704 976.897 50.796C977.317 51.1704 977.778 51.4403 978.32 51.4403C978.442 51.4403 978.55 51.3649 978.659 51.3416C979.214 53.2165 980.15 54.447 981.206 54.447C981.288 54.447 981.356 54.4064 981.437 54.3919C981.803 60.1586 982.589 64.1782 983.469 64.1782C983.795 64.1782 984.093 63.7022 984.364 62.8345C984.987 68.668 985.922 72.4263 986.993 72.4263C988.348 72.4263 989.527 66.4623 990.055 57.8775C990.177 57.8978 990.286 57.9529 990.367 57.9529C991.939 57.9529 993.307 56.1506 994.148 53.408C994.324 53.4429 994.486 53.4864 994.676 53.4864C995.476 53.4864 996.18 53.1584 996.831 52.6244C997.779 53.1584 998.89 53.4864 1000.08 53.4864C1002.67 53.4864 1004.91 52.0237 1005.98 49.9195C1006.76 49.6148 1007.35 49.2404 1007.83 48.8428H1053.79V45.6214H1007.79V45.6417Z" fill="white"/>
</svg>
