<svg width="49" height="48" viewBox="0 0 49 48" fill="none" xmlns="http://www.w3.org/2000/svg">
<path d="M23.4213 3.68668C23.8625 2.77111 25.1374 2.77111 25.5787 3.68668L31.2907 15.5388C31.4659 15.9024 31.8046 16.1544 32.1964 16.2127L44.9687 18.1133C45.9554 18.2601 46.3494 19.5018 45.6354 20.2144L36.3933 29.4401C36.1097 29.7231 35.9804 30.1308 36.0473 30.5304L38.2291 43.5572C38.3976 44.5635 37.3662 45.3309 36.4837 44.8558L25.0598 38.7054C24.7093 38.5167 24.2907 38.5167 23.9402 38.7054L12.5163 44.8558C11.6338 45.3309 10.6024 44.5635 10.7709 43.5572L12.9527 30.5304C13.0196 30.1308 12.8903 29.7231 12.6067 29.4401L3.36458 20.2144C2.65063 19.5018 3.0446 18.2601 4.03125 18.1133L16.8036 16.2127C17.1954 16.1544 17.5341 15.9024 17.7093 15.5388L23.4213 3.68668Z" stroke="white" stroke-width="5" stroke-linejoin="round"/>
</svg>
